<?xml version="1.0" encoding="utf-8"?>
<!-- Generator: Adobe Illustrator 16.0.4, SVG Export Plug-In . SVG Version: 6.00 Build 0)  -->
<!DOCTYPE svg PUBLIC "-//W3C//DTD SVG 1.1//EN" "http://www.w3.org/Graphics/SVG/1.1/DTD/svg11.dtd">
<svg version="1.1" id="Layer_1" xmlns="http://www.w3.org/2000/svg" xmlns:xlink="http://www.w3.org/1999/xlink" x="0px" y="0px"
	 width="165px" height="52px" viewBox="0 0 165 52" enable-background="new 0 0 165 52" xml:space="preserve">
<g>
	<path fill="#462901" d="M42.681,3.668c0.024,0.023,0.023,0.073,0.021,0.125c0.01,0.047,0.111,0.001,0.126,0.042
		c0.029,0.214,0.283,0.349,0.355,0.585c0.146,0.016,0.111,0.209,0.251,0.23c0.021,0.174,0.068,0.322,0.209,0.377
		c0.02,0.219,0.195,0.459,0.335,0.627c0.055,0.356,0.157,0.664,0.355,0.878c-0.07,0.143,0.035,0.39,0.168,0.46
		c-0.166,0.166,0.04,0.275-0.021,0.481c0.018,0.045,0.092,0.033,0.125,0.062c-0.132,0.171,0.041,0.365,0.104,0.523
		c-0.055,0.323,0.091,0.76,0,1.066c0.221,0.5,0.105,1.192,0.105,1.861c0,0.515,0.02,1.05,0.041,1.505
		c0.006,0.076-0.038,0.101-0.041,0.167c0.024,0.138,0.055,0.211,0,0.335c-0.019,0.088,0.04,0.1,0.041,0.168
		c-0.054,0.493-0.009,1.124,0.021,1.673c-0.046,0.142-0.1,0.213-0.021,0.335c-0.105,0.012-0.069,0.167-0.126,0.229
		c-0.587,0.029-1.352-0.02-2.111-0.021c-0.576-0.001-1.164,0.101-1.589,0.041c-0.122-0.017-0.19-0.119-0.252-0.229
		c0.083-0.906,0.01-1.81,0-2.698c-0.002-0.158,0.047-0.321,0.042-0.48c-0.002-0.062-0.043-0.127-0.042-0.188
		c0.002-0.161,0.068-0.339,0.063-0.502c-0.002-0.04-0.043-0.105-0.042-0.146c0.001-0.061,0.043-0.11,0.042-0.167
		c-0.016-0.444-0.099-0.977,0.021-1.38c-0.034-0.817,0.038-1.675-0.042-2.468c0.078-0.648,0.025-1.316,0.021-2.008
		c-0.003-0.352,0.112-0.795-0.104-0.962c0.017-0.242-0.223-0.286-0.189-0.48c-0.03-0.087-0.11,0.009-0.146-0.063
		c0.003-0.052,0.003-0.101-0.021-0.125c-0.156-0.13-0.289-0.282-0.46-0.398c-0.179,0.02-0.229-0.091-0.354-0.125
		c-0.394,0.009-0.879-0.223-1.192,0.042c-0.02-0.036-0.065-0.046-0.126-0.042c-0.546,0.109-0.875,0.437-1.129,0.837
		c0.029,0.197-0.15,0.352-0.188,0.522c-0.034,0.154,0.05,0.327-0.062,0.46c-0.014,0.077,0.045,0.08,0.041,0.146
		c-0.096,0.137-0.084,0.524-0.021,0.69c-0.031,2.437-0.062,4.949-0.042,7.57c0.011,1.322-0.01,2.673,0.021,3.974
		c0.004,0.188,0.037,0.381,0.021,0.563c-0.014,0.15-0.002,0.264,0,0.419c0.004,0.208-0.113,0.38,0,0.543
		c-0.084,1.364-0.027,3.035-0.062,4.496c-0.018,0.711,0.039,1.338,0.042,2.134c0.002,0.8-0.03,1.601-0.042,2.405
		c-0.004,0.303,0.042,0.617,0.042,0.92c0,0.271-0.048,0.533-0.042,0.795c0.025,1.24,0.008,2.582,0.062,3.892
		c-0.063,2.278,0,4.903,0,7.526c0,1.953-0.035,4.088,0.021,6.232c0.013,0.463-0.017,0.863-0.021,1.338
		c-0.004,0.543,0.11,0.922,0.377,1.277c0.043,0.057,0.138,0.156,0.229,0.229c0.023,0.02,0.074,0,0.104,0.021
		c0.107,0.072,0.21,0.215,0.293,0.252c0.05,0.021,0.122,0.002,0.188,0.02c0.074,0.023,0.135,0.104,0.21,0.127
		c0.198,0.062,0.546,0.049,0.815,0.041c0.161-0.004,0.313-0.09,0.461-0.125c0.186-0.047,0.22-0.041,0.417-0.188
		c0.085-0.062,0.22-0.105,0.293-0.166c0.055-0.046,0.337-0.416,0.355-0.482c0.013-0.041-0.009-0.104,0-0.146
		c0.193-0.204,0.195-0.614,0.188-1.024c-0.01-0.592-0.006-1.221-0.062-1.819c0.044-1.082,0.072-2.693,0.042-3.89
		c-0.007-0.262,0.034-0.549-0.042-0.795c0.05-0.86,0.064-1.799,0.042-2.571c-0.007-0.228-0.013-0.365,0.146-0.503
		c1.279,0.056,2.522-0.016,3.828,0.021c0.104,0.293,0.013,0.594,0.021,0.879c0.021,0.779-0.002,1.531,0.042,2.469
		c0.006,0.123-0.044,0.387-0.042,0.564c0.002,0.24,0.012,0.438,0,0.668c-0.01,0.201,0.059,0.449-0.042,0.629
		c0.072,0.467-0.122,0.922-0.062,1.338c-0.198,0.363-0.187,0.854-0.355,1.213c-0.015,0.076,0.045,0.08,0.042,0.146
		c-0.131,0.157-0.286,0.369-0.272,0.606c-0.108,0.224-0.265,0.385-0.251,0.646c-0.128,0.152-0.262,0.386-0.313,0.545
		c-0.352,0.539-0.748,1.035-1.171,1.507c-0.045,0.045-0.062-0.027-0.126-0.021c-0.102,0.255-0.379,0.332-0.502,0.564
		c-0.105,0.006-0.118,0.104-0.251,0.084c-0.085,0.108-0.192,0.196-0.376,0.209c-0.185,0.159-0.474,0.317-0.753,0.313
		c-0.072,0.053-0.166,0.084-0.23,0.146c-0.158-0.031-0.243,0.071-0.355,0.021c-0.073-0.004-0.065,0.074-0.104,0.105
		c-0.148-0.01-0.356-0.057-0.439,0.062c-0.557-0.035-1.029-0.06-1.61-0.168c-0.14-0.107-0.46-0.222-0.627-0.166
		c-0.164-0.263-0.625-0.228-0.731-0.546c-0.057,0-0.112,0-0.167,0c-0.213-0.198-0.448-0.375-0.629-0.604
		c-0.038-0.041-0.076-0.008-0.125,0c-0.121-0.18-0.264-0.336-0.438-0.461c-0.043-0.146-0.119-0.258-0.251-0.312
		c-0.132-0.268-0.297-0.5-0.503-0.691c-0.094-0.196-0.154-0.43-0.292-0.586c0.006-0.192-0.094-0.282-0.168-0.396
		c-0.005-0.371-0.19-0.562-0.334-0.795c0.104-0.222-0.118-0.383-0.146-0.543c-0.005-0.029,0.042-0.104,0.042-0.127
		c0.002-0.158-0.157-0.308-0.084-0.502c-0.057-0.109-0.127-0.207-0.167-0.334c0.126-0.439-0.146-0.757-0.021-1.234
		c0.011-0.094-0.073-0.094-0.083-0.166c0.046-1.385,0.027-2.653,0-4.016c-0.018-0.097,0.049-0.104,0.062-0.168
		c-0.001-0.074-0.052-0.101-0.062-0.166c0.013-0.666,0.041-1.379-0.021-2.07c0.034-0.028,0.054-0.073,0.063-0.127
		c-0.062-0.414-0.034-0.819-0.063-1.233c-0.027-0.39,0.048-0.781,0.042-1.148c-0.001-0.057-0.037-0.111-0.042-0.168
		c-0.014-0.152,0.051-0.334,0.042-0.502c-0.003-0.062-0.062-0.125-0.062-0.188c-0.002-0.056,0.041-0.115,0.042-0.168
		c0.001-0.066-0.044-0.115-0.042-0.169c0.002-0.053,0.058-0.108,0.062-0.165c0.014-0.16-0.062-0.339-0.062-0.503
		c0-0.057,0.041-0.112,0.042-0.168c0-0.057-0.042-0.11-0.042-0.168c0.004-0.762,0.051-1.53-0.021-2.319
		c-0.005-0.082,0.046-0.109,0.063-0.168c-0.075-1.209,0.014-2.4-0.063-3.556c0.017-0.067,0.029-0.139,0.063-0.188
		c-0.003-0.073-0.061-0.094-0.063-0.167c0.064-0.667,0.044-1.315,0-1.966c0.021-0.057,0.034-0.119,0.063-0.167
		c-0.022-0.048-0.035-0.105-0.063-0.146c0.104-0.293,0.048-0.732,0.021-1.024c0.167-0.173-0.075-0.606,0.062-0.795
		c-0.027-0.084-0.028-0.194-0.062-0.271c0.096-0.774,0.062-1.642,0.042-2.593c-0.055-2.645,0.077-5.65,0-8.303
		c-0.002-0.056,0.02-0.107,0.021-0.167c0.008-0.405-0.084-0.895-0.042-1.171c0.015-0.095,0.091-0.16,0.104-0.251
		c0.019-0.114-0.039-0.218-0.041-0.335c-0.006-0.273,0.137-0.542,0.062-0.857c0.146-0.201,0.156-0.521,0.167-0.773
		c0.016-0.056,0.099-0.041,0.126-0.084c0.013-0.09-0.068-0.085-0.063-0.167c0.087-0.074,0.104-0.218,0.168-0.314
		c-0.129-0.335,0.292-0.484,0.209-0.836c0.115-0.149,0.133-0.396,0.293-0.503c0.014-0.084-0.021-0.118-0.021-0.188
		c0.049,0.007,0.081-0.003,0.104-0.021c0.01-0.235,0.202-0.286,0.21-0.523c0.302-0.241,0.435-0.652,0.731-0.899
		c-0.016-0.063,0.036-0.061,0.021-0.125c0.192-0.124,0.313-0.421,0.543-0.439c0.039-0.037,0.048-0.105,0.063-0.167
		c0.221-0.05,0.33-0.214,0.459-0.355c0.043,0,0.085,0,0.126,0c0.07-0.042,0.098-0.126,0.167-0.168
		c0.31-0.022,0.389-0.371,0.711-0.313c0.07-0.134,0.189-0.11,0.377-0.167c0.056-0.017,0.093-0.085,0.146-0.104
		c0.152-0.056,0.455-0.004,0.586-0.126c0.301,0.118,0.81-0.216,1.129,0.042c0.139-0.088,0.251,0.05,0.376-0.042
		c0.157,0.132,0.391,0.064,0.586,0.126c0.12,0.038,0.205,0.185,0.355,0.125c0.083,0.036,0.122,0.115,0.188,0.168
		c0.128-0.038,0.191,0.004,0.293,0.042c0.083,0.104,0.161,0.215,0.354,0.208c0.183,0.118,0.225,0.376,0.544,0.356
		c0.174,0.238,0.443,0.38,0.565,0.669C42.564,3.659,42.61,3.677,42.681,3.668z M34.044,48.129
		C34.058,48.143,34.035,48.121,34.044,48.129L34.044,48.129z"/>
	<path fill="#462901" d="M65.643,2.121c0.094,0.046,0.16,0.119,0.23,0.188c0.049,0.001,0.062-0.036,0.126-0.021
		c0.167,0.16,0.527,0.128,0.627,0.355c0.067,0.005,0.089-0.037,0.167-0.021c0.081,0.095,0.181,0.169,0.252,0.272
		c0.08,0.012,0.131,0.051,0.23,0.041c0.143,0.192,0.365,0.305,0.502,0.503c0.043,0.051,0.093-0.019,0.125,0.021
		c0.08,0.21,0.283,0.313,0.418,0.481c0.211,0.261,0.365,0.579,0.628,0.795c0.122,0.276,0.28,0.515,0.438,0.753
		c0.031,0.233,0.188,0.343,0.188,0.605c0.225,0.424,0.403,0.894,0.46,1.485c0.098,0.146,0.128,0.36,0.146,0.585
		c0.184,0.446,0.061,0.964,0.125,1.443c0.111,0.826-0.02,1.954-0.021,2.886c0,0.326,0.041,0.649,0.042,0.963
		c0.005,2.894-0.009,5.715,0,8.595c0.002,0.908-0.009,1.982,0.021,2.97c0.555,0.134,1.141-0.046,1.633,0.062
		c0.035,0.166,0.055,0.418-0.043,0.586c-0.5,0.124-1.082-0.084-1.59,0.062c-0.016,3.638-0.056,7.513-0.021,11.292
		c0.013,1.41,0.034,2.898-0.021,4.269c-0.011,0.25,0.041,0.517,0.041,0.772c0.004,2.146-0.062,4.105,0.021,6.045
		c-0.071,0.869,0.009,1.763-0.021,2.677c-0.052,0.024-0.082,0.071-0.104,0.125c-0.271-0.013-0.505-0.064-0.773,0.021
		c-0.062-0.127-0.084-0.027-0.209-0.021c-0.051,0.004-0.104-0.062-0.146-0.062c-0.086,0.002-0.149,0.12-0.25,0
		c-0.078-0.009-0.055,0.084-0.146,0.062c-0.06,0.004-0.049-0.062-0.104-0.062c-0.113,0.045-0.151,0.082-0.252,0
		c-0.344,0.12-0.787-0.033-1.129,0.084c-0.064-0.005-0.082-0.06-0.125-0.084c-0.187,0.143-0.422-0.027-0.628,0.084
		c-0.106-0.025-0.115-0.148-0.188-0.209c0.045-0.226,0.065-0.438,0-0.648c-0.01-0.094,0.056-0.111,0.083-0.168
		c-0.153-0.17,0.085-0.367-0.083-0.502c0.083-0.137,0.084-0.215,0-0.355c-0.001-0.068,0.053-0.086,0.083-0.125
		c-0.176-0.186,0.083-0.334-0.083-0.502c-0.004-0.088,0.079-0.088,0.083-0.166c0.005-0.09-0.079-0.09-0.083-0.168
		c-0.011-0.094,0.073-0.094,0.083-0.168c-0.01-0.074-0.094-0.074-0.083-0.168c0.085-0.182-0.01-0.32,0.125-0.48
		c-0.069-0.782-0.038-1.555-0.021-2.342c0.003-0.102-0.13-0.065-0.125-0.168c-0.028-0.117,0.076-0.104,0.104-0.166
		c-0.065-0.188,0.079-0.35-0.042-0.481c-0.014-0.093,0.061-0.093,0.063-0.166c-0.106-0.281,0.058-0.644-0.063-0.88
		c0.023-0.038,0.053-0.073,0.063-0.125c-0.041-0.125-0.052-0.237,0-0.354c-0.077-0.096-0.005-0.223,0-0.336
		c0.006-0.147-0.047-0.313-0.042-0.479c0.002-0.053,0.042-0.113,0.042-0.166c-0.004-0.494-0.065-1.019-0.063-1.506
		c0.002-0.365,0.103-0.728,0-1.047c0.087-0.828-0.029-1.599,0.063-2.447c-0.028-0.076-0.031-0.178-0.063-0.25
		c0.089-0.322,0.005-0.685,0-1.004c-0.003-0.242,0.076-0.479-0.021-0.67c0.001-0.082,0.046-0.121,0.062-0.188
		c-0.033-1.08-0.047-2.269,0-3.347c-0.076-0.35,0.021-0.789-0.062-1.172c0.082-0.812,0.011-1.762,0.021-2.677
		c0.002-0.118,0.066-0.269-0.041-0.354c0.129-0.383,0.023-0.85,0.062-1.213c-0.076-0.082-0.353-0.078-0.439,0
		c-0.032-0.03-0.081-0.044-0.126-0.062c-0.458,0.062-0.959,0.028-1.358-0.041c-0.306,0.078-0.639,0.015-1.004,0
		c-0.522-0.023-1.213-0.08-0.982,0.48c-0.121,0.166,0.071,0.307-0.063,0.48c-0.002,0.079,0.091,0.063,0.063,0.168
		c-0.048,0.162-0.063,0.181,0,0.334c0.013,0.084-0.027,0.113-0.063,0.146c0.076,0.193,0.083,0.506,0,0.691
		c0.128,0.365-0.01,0.787,0.063,1.172c0.021,0.096-0.035,0.117-0.063,0.166c0.076,0.189,0.087,0.494,0,0.668
		c0.126,0.414,0.008,0.806,0.063,1.215c0.021,0.091-0.044,0.097-0.063,0.146c0.149,0.26-0.034,0.553,0.084,0.836
		c-0.115,0.371,0.055,0.746-0.063,1.15c-0.021,0.098,0.085,0.068,0.063,0.166c0.02,0.104-0.043,0.125-0.063,0.188
		c0.003,0.074,0.078,0.076,0.063,0.166c-0.09,0.181,0.076,0.38-0.063,0.523c0.146,0.11-0.043,0.319,0.084,0.418
		c-0.116,0.407,0.047,0.879-0.084,1.256c0.003,0.074,0.078,0.076,0.063,0.166c0.014,0.092-0.036,0.117-0.063,0.168
		c-0.005,0.082,0.076,0.078,0.063,0.168c-0.049,0.33,0.063,0.883-0.063,1.19c0.147,0.177-0.051,0.359,0.063,0.523
		c0.006,0.082-0.025,0.127-0.063,0.168c0.143,0.135-0.037,0.357,0.084,0.48c-0.113,0.387,0.042,0.848-0.062,1.191
		c0.142,0.145-0.044,0.375,0.062,0.545c-0.005,0.077-0.065,0.102-0.084,0.166c0.066,0.151,0.109,0.479,0,0.627
		c0.08,0.196,0.083,0.465,0,0.647c0.044,0.146,0.128,0.217,0,0.336c-0.004,0.086,0.104,0.063,0.084,0.166
		c-0.119,0.183-0.01,0.349-0.104,0.522c-0.009,0.095,0.057,0.111,0.084,0.168c-0.104,0.341-0.12,1.007-0.021,1.359
		c-0.096,0.648-0.036,1.334-0.043,2.027c-0.011,1.379,0.017,2.816,0,4.225c-0.087,0.01-0.146,0.049-0.209,0.084
		c-0.092,0.021-0.068-0.07-0.146-0.062c-0.062,0-0.07,0.055-0.125,0.062c-0.167-0.061-0.348-0.084-0.502-0.021
		c-0.081,0.02-0.074-0.052-0.126-0.062c-0.138,0.068-0.369,0.08-0.501,0c-0.161,0.068-0.36,0.072-0.502,0.021
		c-0.064,0-0.082,0.043-0.126,0.062c-0.214-0.104-0.405,0.037-0.606-0.084c-0.088,0.002-0.1,0.082-0.188,0.084
		c-0.173-0.168-0.637-0.047-0.94-0.084c-0.184-0.773,0.028-1.629-0.021-2.426c-0.021-0.332-0.046-0.686,0-0.982
		c0.072-0.473-0.02-0.979-0.021-1.465c-0.002-1.053,0.059-2.139,0.021-3.199c-0.007-0.188-0.021-0.461-0.021-0.688
		c0-0.451,0.053-0.912,0.043-1.358c-0.043-1.902-0.083-3.785,0-5.562c-0.086-1.721-0.043-3.262-0.043-4.957
		c0-0.951-0.038-1.85-0.041-2.866c-0.001-0.563,0.084-1.114-0.021-1.652c-0.476-0.09-0.987-0.026-1.402,0
		c-0.175-0.086-0.312-0.309-0.229-0.585c0.055-0.051,0.174-0.035,0.209-0.105c0.328,0.1,0.815-0.012,1.192,0.063
		c0.108-0.049,0.125-0.138,0.251-0.125c0.045-1.628-0.019-3.611,0-5.334c-0.019-0.103,0.088-0.079,0.084-0.167
		c0.022-0.261-0.087-0.387-0.104-0.606c-0.009-0.085,0.089-0.063,0.104-0.125c-0.045-0.441,0.068-0.937,0-1.339
		c-0.007-0.039-0.061-0.104-0.063-0.146c-0.002-0.038,0.047-0.091,0.042-0.126c-0.022-0.163-0.136-0.351,0.021-0.48
		c0.039-0.771-0.032-1.651-0.021-2.469c0.021-1.583-0.033-3.349,0.062-4.705c0.014-0.185-0.026-0.367,0-0.544
		c0.01-0.061,0.065-0.082,0.084-0.146c0.028-0.102-0.021-0.313,0-0.48c0.02-0.158,0.087-0.279,0.062-0.502
		c0.141-0.343,0.242-0.732,0.293-1.108c0.104-0.084,0.189-0.275,0.167-0.419c0.157-0.184,0.242-0.441,0.293-0.731
		c0.277-0.155,0.273-0.592,0.544-0.753c0.018-0.06,0.024-0.129,0.042-0.188c0.171-0.082,0.205-0.278,0.313-0.418
		c0.041-0.054,0.157-0.098,0.21-0.167c0.033-0.046,0.03-0.109,0.062-0.146c0.045-0.054,0.16-0.169,0.252-0.188
		c0.172-0.268,0.457-0.42,0.647-0.669c0.262-0.031,0.382-0.204,0.523-0.356c0.334,0.019,0.54-0.354,0.898-0.313
		c0.074-0.052,0.17-0.082,0.21-0.167c0.083-0.014,0.084,0.056,0.167,0.042c0.072,0.009,0.062-0.062,0.104-0.084
		c0.078-0.022,0.06,0.052,0.126,0.042c0.24-0.136,0.592-0.114,0.878-0.125c0.057-0.003,0.131-0.028,0.188-0.021
		c0.068,0.008,0.125,0.074,0.188,0.084c0.072,0.012,0.266-0.066,0.397-0.042C65.31,2.073,65.445,2.188,65.643,2.121z M65.247,3.082
		c-0.275,0.064-0.562-0.209-0.774-0.083c-0.044-0.018-0.071-0.054-0.146-0.042c-0.173,0.064-0.417,0.12-0.605,0.104
		c-0.285,0.147-0.603,0.263-0.732,0.564c-0.063,0.016-0.076-0.021-0.126-0.021c-0.055,0.105-0.151,0.169-0.125,0.355
		c-0.026,0.029-0.099,0.014-0.125,0.042c0.011,0.228-0.066,0.366-0.167,0.481c0.003,0.059,0.037,0.087,0.041,0.146
		c-0.069,0.319-0.062,0.776-0.062,1.192c0,0.587,0.057,1.183,0,1.674c0.027,0.048,0.034,0.118,0.062,0.167
		c-0.018,0.059-0.067,0.085-0.062,0.167c0.073,1.419-0.03,2.896,0.062,4.476c-0.072,1.43,0.013,3.195-0.062,4.517
		c0.011,0.074-0.074,0.052-0.062,0.126c0.047,0.05,0.067,0.128,0.084,0.209c-0.024,0.047-0.07,0.069-0.084,0.125
		c0.131,0.317-0.002,0.805,0.062,1.172c0.008,0.07-0.037,0.089-0.062,0.125c0.126,0.257-0.029,0.581,0.084,0.837
		c-0.077,0.582,0.033,1.231-0.063,1.861c0.148,0.325-0.058,0.81,0.063,1.15c-0.061,0.144-0.061,0.214,0,0.355
		c-0.004,0.073-0.061,0.093-0.063,0.167c0.02,0.05,0.084,0.056,0.063,0.146c0.006,0.091-0.052,0.117-0.063,0.188
		c0.021,0.048,0.072,0.067,0.063,0.146c-0.105,0.153,0.037,0.338-0.063,0.522c0.135,0.125-0.024,0.307,0.063,0.502
		c-0.003,0.075-0.079,0.075-0.084,0.146c0.069,0.051,0.082,0.216,0.041,0.313c0.071,0.013,0.113,0.055,0.126,0.125
		c1.354,0,2.387-0.047,3.765,0.021c0.12-0.224,0.056-0.489,0.041-0.773c-0.026-0.547,0.058-1.218-0.021-1.673
		c-0.011-0.088,0.062-0.093,0.042-0.188c-0.043-0.226-0.034-0.447,0-0.69c-0.04-0.648-0.043-1.324,0-1.987
		c-0.037-0.39-0.073-0.871,0.084-1.191c-0.048-0.05-0.067-0.128-0.084-0.209c0.039-0.059,0.093-0.103,0.104-0.188
		c-0.077,0.008-0.087-0.052-0.104-0.104c-0.004-0.088,0.103-0.065,0.084-0.168c-0.006-0.063-0.104-0.034-0.084-0.125
		c0.101-0.138-0.012-0.236,0-0.354c0.006-0.062,0.062-0.099,0.062-0.167c-0.001-0.108-0.127-0.224,0-0.335
		c-0.11-0.071-0.051-0.249,0.021-0.313c-0.099-0.09-0.095-0.219-0.021-0.335c-0.018-0.065-0.079-0.088-0.084-0.167
		c0.014-0.056,0.061-0.08,0.084-0.126c-0.028-0.068-0.093-0.102-0.084-0.209c0.006-0.078,0.087-0.081,0.146-0.104
		c-0.157-0.17-0.02-0.386-0.146-0.564c0.012-0.065,0.088-0.066,0.084-0.146c-0.089-0.061-0.12-0.238,0-0.293
		c-0.054-0.092-0.15-0.271,0-0.334c0.006-0.097-0.095-0.087-0.084-0.188c0.132-0.177-0.085-0.36,0.084-0.522
		c-0.03-0.053-0.1-0.068-0.084-0.167c0.001-0.091,0.104-0.078,0.105-0.168c-0.033-0.058-0.119-0.062-0.105-0.167
		c0.145-0.155-0.092-0.339,0.084-0.481c-0.078-0.113-0.096-0.237,0-0.334c-0.026-0.058-0.072-0.096-0.084-0.168
		c0.027-0.057,0.073-0.095,0.084-0.167c-0.08-0.085-0.118-0.237,0-0.314c-0.16-0.167,0.048-0.338-0.084-0.522
		c0.01-0.074,0.054-0.115,0.105-0.146c-0.001-0.097-0.119-0.077-0.105-0.188c0.057-0.218,0.051-0.438,0-0.669
		c0.005-0.079,0.089-0.079,0.084-0.167c-0.107-0.063-0.095-0.224-0.021-0.313c-0.134-0.179,0.064-0.318-0.063-0.502
		c0.008-0.068,0.049-0.104,0.084-0.146c0.006-0.097-0.095-0.087-0.084-0.188c0.005-0.079,0.089-0.079,0.084-0.167
		c-0.182-0.139,0.057-0.338-0.084-0.523c0.006-0.058,0.066-0.059,0.084-0.104c-0.185-0.157,0.056-0.366-0.084-0.543
		C66.332,7.37,66.44,7.393,66.42,7.29c-0.121-0.093-0.071-0.225,0-0.334c-0.133-0.081-0.063-0.232,0-0.335
		c-0.013-0.057-0.087-0.052-0.084-0.125c0.044-0.04,0.111-0.058,0.105-0.146c-0.1-0.441,0.059-1.102-0.021-1.548
		c0.007-0.07,0.061-0.093,0.042-0.188c-0.103-0.134-0.197-0.276-0.167-0.544c-0.217-0.264-0.42-0.543-0.649-0.795
		c-0.083-0.02-0.062,0.063-0.146,0.042C65.466,3.184,65.307,3.181,65.247,3.082z M68.07,17.805c-0.018,0.004-0.043,0-0.043,0.021
		C68.044,17.822,68.068,17.825,68.07,17.805z M67.63,19.625C67.581,19.695,67.701,19.574,67.63,19.625L67.63,19.625z M67.63,19.833
		C67.643,19.864,67.656,19.832,67.63,19.833C67.618,19.803,67.605,19.836,67.63,19.833z M68.801,22.406
		C68.826,22.489,68.826,22.324,68.801,22.406L68.801,22.406z"/>
	<path fill="#462901" d="M85.387,50.891c0.022-0.143-0.082-0.158-0.085-0.272c0.138-0.205-0.132-0.611,0.104-0.773
		c-0.051-0.225-0.041-0.329-0.084-0.563c0.021-0.035,0.07-0.043,0.084-0.084c-0.04-1.062,0.023-2.098-0.043-3.158
		c0.031-0.445,0.068-0.939-0.021-1.359c0.058-0.1,0.044-0.162,0.042-0.312c-0.004-0.302,0.051-0.793-0.042-1.048
		c0-0.062,0.054-0.069,0.062-0.125c-0.069-0.598,0.035-1.229-0.062-1.881c0.058-0.373,0.056-0.643,0-1.004
		c-0.006-0.062,0.048-0.063,0.042-0.127c-0.012-0.063-0.018-0.135-0.042-0.188c0.062-0.48,0.069-0.936,0-1.359
		c0.097-0.205-0.001-0.432,0-0.647c0.003-0.478-0.003-1.062,0.042-1.507c0.041-0.397-0.035-0.813-0.042-1.213
		c-0.006-0.389,0.067-0.789,0.042-1.172c-0.006-0.074-0.061-0.137-0.062-0.209c-0.002-0.039,0.058-0.065,0.062-0.104
		c0.004-0.029-0.02-0.107-0.021-0.168c-0.006-0.211-0.02-0.377,0-0.543c0.039-0.33-0.057-0.691,0.021-0.984
		c-0.068-0.129-0.027-0.244-0.021-0.375c0.035-0.639,0.009-1.385,0.021-1.967c0.002-0.064-0.047-0.143-0.042-0.209
		c0.026-0.393,0.015-0.857,0-1.297c-0.049-1.469,0.062-2.916-0.042-4.391c-0.018-0.081,0.051-0.074,0.062-0.126
		c-0.115-0.421,0.063-0.787-0.062-1.213c0.131-0.354-0.01-0.814,0.042-1.233c0.007-0.058,0.06-0.124,0.062-0.188
		c0.004-0.046-0.039-0.105-0.041-0.146c-0.002-0.049,0.039-0.098,0.041-0.146c0.004-0.047-0.037-0.095-0.041-0.146
		c-0.036-0.523,0.088-1.228-0.021-1.715c0.03-0.04,0.049-0.091,0.062-0.146c-0.062-1.096-0.043-2.383-0.021-3.617
		c-0.062-1.352,0.023-3.081-0.062-4.496c0.105-0.346-0.057-0.857,0.084-1.172c-0.141-0.301,0.019-0.805-0.084-1.129
		c0.103-0.22,0.025-0.377,0.104-0.586c0.021-0.105-0.062-0.105-0.084-0.167c0.103-0.06,0.005-0.169,0.021-0.271
		c0.011-0.056,0.171-0.259,0-0.313c0.137-0.114,0.051-0.44,0.021-0.629c0.061-0.198,0.074-0.469,0-0.669
		c0.107-0.969-0.041-2.017,0.021-2.97c0.343-0.008,0.537,0.04,0.836,0c-0.01,0.36,0.037,0.723,0.043,1.088
		c0.004,0.39-0.053,0.786-0.062,1.15c-0.006,0.199,0.002,0.439,0.125,0.586c0.316-0.298,0.448-0.778,0.795-1.046
		c0.006-0.076-0.004-0.137-0.021-0.188c0.104,0.007,0.177-0.053,0.251-0.126c0.013-0.05,0.03-0.096,0.021-0.167
		c0.15-0.051,0.239-0.165,0.293-0.313c0.191-0.13,0.336-0.305,0.564-0.397c0.05-0.097,0.139-0.154,0.188-0.251
		c0.08-0.018,0.146-0.049,0.168-0.125c0.274,0.056,0.314-0.278,0.606-0.271c0.124-0.135,0.362-0.154,0.479-0.293
		c0.056,0.008,0.063,0.062,0.127,0.062c0.084-0.187,0.367-0.046,0.459-0.23c0.076-0.012,0.102,0.024,0.146,0.042
		c0.215-0.166,0.618,0.053,0.795-0.146c0.239,0.154,0.596,0.015,0.836,0.084c0.16,0.046,0.338,0.172,0.564,0.104
		c0.102,0.057,0.178,0.186,0.334,0.125c0.375,0.3,0.861,0.368,1.15,0.732c0.065,0.01,0.073-0.038,0.146-0.021
		c0.185,0.2,0.31,0.457,0.604,0.544C94.92,3.969,95.2,4.01,95.25,4.279c0.041,0.03,0.084,0.056,0.146,0.063
		c0.414,0.517,0.625,1.116,0.981,1.673c-0.047,0.365,0.213,0.496,0.293,0.711c0.035,0.094,0.019,0.203,0.043,0.293
		c0.065,0.24,0.144,0.465,0.229,0.731c-0.057,0.342,0.182,0.638,0.209,0.941c0.018,0.168-0.045,0.333-0.021,0.502
		c0.037,0.249,0.08,0.573,0.084,0.878c0.002,0.244-0.045,0.495-0.043,0.754c0.007,0.664,0.041,1.438,0,2.027
		c-0.021,0.277,0.045,0.565,0.043,0.837c-0.016,1.37-0.004,2.808-0.043,4.12c0.066,0.312,0.022,0.665,0.021,1.004
		c-0.006,0.914-0.022,2.001,0.041,2.823c0.015,0.172-0.043,0.34-0.041,0.502c0.005,0.229,0.066,0.454-0.021,0.669
		c0.019,0.054,0.021,0.119,0.062,0.146c0.007,0.088-0.077,0.088-0.084,0.167c0.06,0.204,0.031,0.397,0.043,0.544
		c0.005,0.062-0.043,0.122-0.043,0.167c0.031,1.565,0.06,3.335,0.064,4.896c0,0.137-0.045,0.276-0.043,0.418
		c0.016,1.52,0.029,3.188,0.043,4.559c0.014,1.568-0.012,3.068-0.021,4.602c-0.004,0.498,0.039,0.992,0.041,1.484
		c0,0.184-0.041,0.379-0.041,0.564c0,0.559,0.043,1.1,0.021,1.631c-0.012,0.242-0.004,0.494,0,0.731c0.014,1.793,0.01,3.599,0,5.271
		c-0.002,0.307-0.082,0.483-0.021,0.772c0.019,0.082-0.051,0.076-0.062,0.127c0.095,0.488-0.021,1.013,0,1.525
		c0.009,0.207,0.08,0.396,0.041,0.606c-0.039,0.037-0.096,0.058-0.125,0.104c-1.032-0.062-1.762-0.021-2.678-0.041
		c-0.062-0.002-0.08,0.043-0.125,0.062c-0.304-0.129-0.675,0.017-1.004-0.062c-0.078-0.412-0.013-0.899-0.041-1.274
		c-0.058-0.683,0.053-1.438,0.021-2.134c-0.046-0.965-0.011-2.08,0-3.012c0.002-0.063-0.041-0.111-0.041-0.168
		c0-0.943,0.006-1.894,0.041-2.865c-0.052-1.188-0.021-2.36-0.041-3.535c0.014-0.062,0.045-0.106,0.062-0.166
		c0-0.069-0.029-0.11-0.062-0.146c0.002-0.074,0.075-0.076,0.062-0.168c-0.031-1.779,0.022-3.609-0.041-5.248
		c0.049-3.412,0.002-6.869-0.021-10.06c-0.005-0.489,0.047-1.076,0.041-1.506c-0.009-0.984-0.031-2.063-0.021-2.97
		c0.002-0.174-0.052-0.371-0.043-0.522c0.051-0.807,0.036-1.83,0.021-2.572c0.039-0.112,0.07-0.103,0.021-0.23
		c0.004-0.079,0.088-0.079,0.084-0.167c-0.02-0.261-0.152-0.447,0-0.669c-0.053-1.586-0.047-3.176-0.064-4.769
		c0-0.064,0.039-0.117,0.043-0.188c0.002-0.049-0.041-0.111-0.043-0.167c0-0.057,0.043-0.114,0.043-0.167
		c-0.002-0.652-0.086-1.443,0-2.008c-0.043-0.579-0.031-1.099,0-1.673c-0.146-0.3-0.275-0.617-0.438-0.899
		c-0.226-0.242-0.539-0.396-0.837-0.565c-0.08-0.011-0.103,0.038-0.188,0.021c-0.396-0.208-0.783-0.075-1.234,0
		c-0.067,0.035-0.133,0.076-0.188,0.126c-0.605,0.125-0.76,0.703-1.046,1.149c-0.054,0.425,0.021,0.96-0.021,1.423
		c-0.024,0.086,0.043,0.081,0.041,0.146c-0.088,0.253,0,0.492,0,0.732c0.004,0.796-0.06,1.623-0.021,2.468
		c0.015,0.324-0.03,0.655-0.021,0.983c0.045,1.483,0.012,3.14,0,4.601c-0.012,1.29,0.021,2.671,0.021,3.994
		c0,2.572-0.05,5.391,0,7.927c0.012,0.586,0.021,1.075,0.021,1.61c0.002,1.649,0.002,3.448,0.021,5.039
		c0.002,0.135-0.042,0.266-0.042,0.397c0,0.201,0.037,0.41,0.021,0.605c-0.01,0.115-0.066,0.227-0.062,0.336
		c0.004,0.1,0.085,0.213,0.084,0.334c-0.001,0.252-0.21,0.465-0.042,0.732c-0.084,0.145,0.003,0.281,0,0.418
		c-0.002,0.102-0.056,0.205-0.062,0.293c-0.022,0.295-0.021,0.615-0.021,0.897c0,4.732,0.095,8.832,0.021,13.615
		c-1.22,0.004-2.561-0.024-3.828,0C85.407,51.037,85.451,50.908,85.387,50.891z M87.331,44.029c0.06,0.004,0.08-0.105,0.021-0.104
		C87.334,43.949,87.325,43.982,87.331,44.029z M86.369,46.561c0.006-0.055-0.029-0.067-0.083-0.062
		C86.287,46.555,86.333,46.6,86.369,46.561z M95.089,46.938c0.048,0.017,0.082,0.043,0.146,0.041
		c0.031-0.063,0.011-0.094-0.02-0.146C95.13,46.824,95.083,46.854,95.089,46.938z M86.202,47.252
		C86.215,47.266,86.193,47.242,86.202,47.252L86.202,47.252z M87.582,47.773c0.075,0.008,0.102,0.031,0.168,0
		c0-0.027,0-0.056,0-0.084C87.672,47.629,87.583,47.693,87.582,47.773z M95.527,48.234c0.027-0.027,0.027-0.078-0.021-0.084
		C95.512,48.182,95.501,48.227,95.527,48.234z"/>
	<path fill="#462901" d="M118.113,51.895c-0.096,0.004-0.092-0.088-0.165-0.104c-0.283,0.062-0.447-0.06-0.773-0.043
		c-0.053-0.022-0.065-0.086-0.104-0.125c-0.166,0.006-0.287-0.033-0.355-0.125c-0.441-0.021-0.523-0.271-0.92-0.334
		c-0.068-0.177-0.33-0.158-0.355-0.377c-0.082-0.021-0.121,0.047-0.168,0c-0.104-0.201-0.403-0.209-0.438-0.479
		c-0.056,0-0.11,0-0.166,0c-0.002-0.117-0.112-0.125-0.104-0.252c-0.519-0.332-0.75-0.949-1.129-1.423
		c-0.183-0.344-0.259-0.741-0.461-1.024c-0.023-0.219-0.104-0.383-0.209-0.521c0.065-0.174-0.093-0.309-0.125-0.439
		c-0.039-0.155,0-0.33-0.041-0.479c-0.045-0.164-0.168-0.295-0.127-0.481c0.01-0.078-0.064-0.072-0.082-0.125
		c0.01-0.236-0.062-0.476,0.02-0.668c0.006-0.082-0.076-0.078-0.062-0.168c-0.084-1.127-0.041-2.445-0.041-3.66
		c0-0.142-0.037-0.252-0.021-0.377c0.01-0.078,0.057-0.15,0.062-0.229c0.031-0.379-0.012-0.715-0.021-1.108
		c-0.015-0.601,0.028-1.242,0.021-1.861c-0.014-1.188-0.062-2.42-0.062-3.617c0-0.295,0.067-0.703,0.062-1.109
		c-0.018-1.248-0.029-2.6-0.041-3.973c0.002-0.061,0.025-0.1,0.104-0.084c0.008-0.09-0.115-0.053-0.104-0.146
		c0.012-0.967,0.014-1.885-0.021-2.844c-0.015-0.353,0.063-0.695,0.062-1.025c-0.002-0.187-0.057-0.375-0.062-0.564
		c-0.022-0.835,0.022-1.809,0.021-2.802c-0.006-1.63,0.002-3.54,0-5.333c-0.002-1.569,0.029-2.872,0-4.559
		c-0.01-0.523-0.082-1.19,0-1.527c0.017-0.067,0.047-0.081,0.084-0.146c0.045-0.339,0-0.691,0.041-1.024
		c0.019-0.146,0.101-0.287,0.125-0.439c0.027-0.153,0.008-0.323,0.043-0.46c0.033-0.131,0.072-0.232,0.125-0.419
		c0.125-0.447,0.367-0.829,0.459-1.254c0.15-0.29,0.328-0.551,0.439-0.879c0.092-0.11,0.225-0.181,0.252-0.355
		c0.168-0.096,0.268-0.263,0.355-0.438c0.125-0.029,0.137-0.169,0.25-0.21c0.008-0.049,0.033-0.078,0.021-0.146
		c0.209-0.093,0.283-0.329,0.459-0.459c0.209-0.154,0.461-0.26,0.606-0.481c0.064-0.016,0.062,0.036,0.125,0.021
		c0.238-0.197,0.543-0.429,0.879-0.46c0.113-0.151,0.414-0.115,0.523-0.271c0.074-0.012,0.051,0.074,0.125,0.062
		c0.127-0.106,0.334-0.132,0.502-0.146c0.781-0.066,1.656,0.023,2.176,0.314c0.144-0.054,0.146,0.051,0.291,0.041
		c0.131,0.166,0.353,0.165,0.523,0.251c0.094,0.048,0.182,0.178,0.293,0.251c0.166,0.108,0.24,0.129,0.396,0.272
		c0.024,0.021,0.035,0.082,0.063,0.104c0.035,0.027,0.095,0.016,0.125,0.043c0.011,0.009,0.021,0.063,0.041,0.083
		c0.065,0.061,0.104,0.055,0.125,0.167c0.367,0.165,0.494,0.567,0.815,0.774c0.062,0.153,0.132,0.301,0.252,0.396
		c0.293,0.47,0.513,0.986,0.73,1.527c0.066,0.164,0.18,0.31,0.23,0.48c0.055,0.187,0.059,0.393,0.104,0.586
		c0.103,0.428,0.253,0.875,0.291,1.401c0.021,0.25-0.079,0.491,0.104,0.669c-0.061,1.798-0.002,3.604-0.021,5.396
		c-0.012,1.24,0.093,2.389-0.041,3.597c0.105,0.125-0.002,0.265-0.021,0.398c-0.057,0.381,0.049,0.864,0.021,1.296
		c-0.036,0.592-0.032,1.302-0.043,1.924c-0.002,0.215,0.048,0.436,0.043,0.649c-0.043,1.982-0.014,3.835,0.021,5.792
		c0.016,0.828-0.039,1.666-0.044,2.508c-0.004,1.054,0.039,2.109,0.044,3.158c0.002,0.633-0.009,1.261,0,1.883
		c0.01,0.855-0.007,1.673,0,2.529c0.008,1.314-0.056,2.611,0.02,3.869c-0.149,0.596,0.044,1.441-0.125,2.113
		c0.011,0.416,0.003,0.934-0.166,1.275c-0.067,0.772-0.312,1.272-0.606,1.84c-0.16,0.74-0.635,1.164-0.963,1.736
		c-0.351,0.241-0.555,0.629-0.877,0.897c-0.066,0.004-0.092,0.049-0.168,0.043c-0.152,0.119-0.265,0.367-0.502,0.334
		c-0.023,0.203-0.273,0.149-0.355,0.336c-0.156-0.088-0.25,0.113-0.377,0.146c-0.041,0.012-0.104-0.017-0.146,0
		c-0.098,0.035-0.156,0.127-0.25,0.168s-0.207-0.027-0.252,0.084c-0.445,0-0.844,0.18-1.231,0.062
		C118.157,51.783,118.186,51.887,118.113,51.895z M120.145,4.378c-0.119-0.034-0.111-0.194-0.23-0.229
		c0.002-0.052,0.039-0.065,0-0.104c-0.334-0.279-0.57-0.657-1.213-0.628c-0.049-0.007-0.039-0.072-0.104-0.062
		c-0.158,0.035-0.228-0.047-0.377,0.021c-0.164-0.085-0.419,0.118-0.628,0c-0.092,0.151-0.311,0.179-0.397,0.335
		c-0.463,0.08-0.51,0.577-0.752,0.878c0.059,0.235-0.18,0.437-0.062,0.669c-0.037,0.033-0.027,0.111-0.064,0.146
		c0.004,0.081,0.072,0.098,0.064,0.189c-0.01,0.061-0.074,0.064-0.064,0.146c0.129,0.181-0.061,0.331,0.064,0.523
		c0.008,0.077-0.086,0.055-0.064,0.146c0.013,0.073,0.058,0.112,0.064,0.188c-0.004,0.074-0.061,0.094-0.064,0.168
		c0.121,0.244-0.026,0.552,0.064,0.836c0,0.079-0.092,0.063-0.064,0.168c0,0.078,0.093,0.062,0.064,0.167
		c-0.066,0.336,0.051,0.819-0.064,1.108c0.074,0.223,0.078,0.508,0.021,0.711c0.086,0.104,0.045,0.211,0,0.335
		c0.014,0.062,0.08,0.073,0.064,0.167c-0.057,0.12-0.078,0.201,0,0.313c-0.012,0.074-0.096,0.074-0.086,0.168
		c0.006,0.078,0.08,0.088,0.086,0.167c-0.006,0.086-0.094,0.089-0.086,0.188c0.021,0.057,0.063,0.089,0.086,0.146
		c-0.104,0.093-0.045,0.242,0,0.355c-0.08,0.179-0.057,0.448,0,0.648c-0.109,0.131,0.037,0.33-0.086,0.48
		c-0.01,0.081,0.055,0.087,0.063,0.146c-0.133,0.068-0.063,0.209-0.063,0.335c0.014,1.17-0.053,2.855,0.021,3.952
		c-0.062,0.43-0.022,0.97,0,1.359c0.019,0.279-0.039,0.563-0.041,0.837c0,0.055,0.041,0.108,0.041,0.167
		c0.006,0.273-0.049,0.562-0.041,0.836c0.011,0.328,0.097,0.666-0.043,1.004c0.125,0.63,0.062,1.448,0.084,2.134
		c0.006,0.173-0.021,0.358-0.021,0.522c0.004,0.304,0.104,0.631-0.125,0.711c-0.215-0.068-0.545,0.06-0.648-0.188
		c-0.023,0.061-0.004,0.163-0.041,0.21c-0.086,0.023-0.199-0.014-0.271,0.062c0.027,0.099,0.113,0.137,0.146,0.229
		c-0.059,0.062-0.059,0.252,0.062,0.252c0.055-0.22,0.168-0.546,0.459-0.397c0.045-0.047,0.051-0.131,0.127-0.146
		c0.115,0.056,0.19,0.027,0.291,0.083c0.024,0.72,0.021,1.219,0,1.841c-0.015,0.076,0.047,0.08,0.043,0.146
		c-0.037,0.482-0.041,1.026-0.043,1.545c0,0.388,0.045,0.824,0.043,1.15c-0.002,0.254-0.082,0.514,0.021,0.691
		c-0.133,0.383,0.072,0.85-0.084,1.316c0.058,0.254,0.097,0.516,0.084,0.754c-0.006,0.11-0.092,0.24-0.084,0.354
		c0.002,0.045,0.045,0.084,0.041,0.125c-0.004,0.062-0.058,0.104-0.062,0.168c-0.014,0.16,0.043,0.34,0.041,0.502
		c0,0.183-0.017,0.318-0.062,0.459c0.014,0.072,0.07,0.099,0.062,0.188c-0.115,0.466,0.065,1.021-0.062,1.525
		c0.09,0.107,0.051,0.238,0,0.355c0.133,0.141-0.037,0.33,0.062,0.502c0.021,0.098-0.084,0.07-0.062,0.168
		c0.004,0.074,0.078,0.076,0.062,0.168c-0.142,0.143,0.102,0.355-0.062,0.502c0.121,0.156-0.02,0.334,0.062,0.521
		c-0.078,0.323,0.053,0.565-0.062,0.858c0.004,0.072,0.078,0.074,0.062,0.166c-0.019,0.06-0.066,0.086-0.062,0.168
		c0.014,0.07,0.074,0.093,0.084,0.166c-0.023,0.054-0.082,0.07-0.084,0.146c0.131,0.185-0.053,0.318,0.062,0.502
		c0.014,0.091-0.066,0.086-0.062,0.168c0.145,0.271-0.035,0.58,0.084,0.898c-0.018,0.045-0.088,0.037-0.084,0.105
		c0.143,0.281-0.021,0.6,0.084,0.857c-0.139,0.155,0.07,0.325-0.062,0.479c-0.008,0.077,0.086,0.055,0.062,0.146
		c-0.012,0.072-0.057,0.111-0.062,0.188c0.025,0.065,0.07,0.11,0.084,0.188c-0.026,0.058-0.071,0.094-0.084,0.166
		c0.089,0.096,0.06,0.232,0,0.336c-0.004,0.088,0.104,0.064,0.084,0.166c-0.125,0.459,0.045,1.035-0.084,1.506
		c0.021,0.064,0.074,0.095,0.062,0.189c0.002,0.07-0.029,0.109-0.062,0.146c0.097,0.197,0.054,0.428,0,0.647
		c0.013,0.072,0.074,0.093,0.062,0.188c0.014,0.09-0.068,0.086-0.062,0.168c0.076,0.492,0.08,1.16,0.021,1.652
		c0.074,0.299,0.039,0.729-0.021,1.022c0.105,0.067,0.045,0.205,0.021,0.313c0.094,0.197,0.273,0.312,0.271,0.605
		c0.318,0.205,0.41,0.637,0.879,0.691c0.135,0.211,0.557,0.131,0.773,0.209c0.081,0.018,0.073-0.051,0.125-0.062
		c0.051,0.02,0.057,0.084,0.146,0.062c0.176-0.117,0.559-0.025,0.69-0.23c0.242-0.029,0.48-0.211,0.627-0.396
		c0.027-0.037,0.012-0.104,0.041-0.146c0.021-0.026,0.086-0.037,0.105-0.062c0.148-0.207,0.15-0.355,0.271-0.545
		c0.034-0.156,0.018-0.326,0.02-0.523c0.018-0.932,0-1.869,0-2.928c0.002-0.346-0.027-0.715,0-1.023
		c0.041-0.408-0.037-0.885-0.02-1.318c0.018-0.459,0.061-0.92,0-1.379c0.051-1.596-0.004-3.268,0.041-4.854
		c0.006-0.166-0.054-0.35-0.041-0.521c0.008-0.133,0.002-0.203,0-0.313c-0.004-0.39,0.043-0.798,0.041-1.214
		c0-0.608-0.041-1.229-0.041-1.819c0-0.285,0.043-0.565,0.02-0.836c-0.033-0.424-0.064-0.804,0.084-1.17
		c-0.152-0.289-0.162-0.731-0.02-1.025c-0.095-0.239-0.09-0.479,0.02-0.688c-0.029-0.055-0.074-0.094-0.084-0.168
		c0.135-0.146-0.084-0.371,0.084-0.502c-0.141-0.045-0.07-0.248,0-0.314c-0.107-0.066-0.096-0.244,0-0.312
		c0.006-0.098-0.094-0.088-0.084-0.188c0.107-0.188-0.07-0.346,0.084-0.522c-0.045-0.037-0.086-0.08-0.084-0.166
		c0.076-0.15,0.031-0.166,0-0.334c0.129-0.166-0.074-0.319,0.064-0.481c0.002-0.078-0.09-0.063-0.064-0.167
		c-0.008-0.092,0.061-0.107,0.064-0.188c0.002-0.079-0.09-0.063-0.064-0.167c-0.004-0.082,0.076-0.078,0.064-0.167
		c-0.009-0.078-0.093-0.076-0.064-0.189c-0.012-0.074,0.064-0.061,0.064-0.125c-0.095-0.275,0.012-0.534-0.064-0.837
		c-0.006-0.091,0.051-0.116,0.064-0.188c-0.021-0.05-0.084-0.055-0.064-0.146c-0.014-0.091,0.062-0.093,0.064-0.168
		c0.002-0.077-0.09-0.062-0.064-0.167c0.115-0.164-0.082-0.332,0.064-0.502c-0.142-0.176,0.045-0.318-0.064-0.502
		c-0.01-0.093,0.074-0.093,0.084-0.167c-0.029-0.053-0.1-0.068-0.084-0.167c0.076-0.15,0.035-0.169,0-0.335
		c0.127-0.161-0.084-0.332,0.064-0.502c-0.14-0.241,0.041-0.589-0.084-0.837c0.018-0.064,0.063-0.103,0.084-0.167
		c-0.045-0.039-0.064-0.103-0.084-0.167c0.176-0.147-0.068-0.341,0.084-0.502c-0.017-0.061-0.101-0.055-0.084-0.146
		c0.145-0.162-0.06-0.326,0.084-0.502c-0.031-0.053-0.074-0.094-0.084-0.167c0.127-0.151-0.056-0.371,0.084-0.523
		c-0.16-0.142,0.039-0.318-0.084-0.501c-0.006-0.082,0.075-0.078,0.062-0.168c-0.121-0.151,0.055-0.293-0.062-0.46
		c-0.002-0.092,0.051-0.129,0.084-0.188c-0.037-0.047-0.088-0.08-0.084-0.167c0.127-0.16-0.07-0.305,0.062-0.48
		c0.019-0.102-0.093-0.076-0.062-0.188c-0.021-0.099,0.084-0.07,0.062-0.168c-0.021-0.048-0.072-0.067-0.062-0.146
		c-0.017-0.091,0.061-0.093,0.062-0.167c-0.015-0.062-0.08-0.073-0.062-0.167c0.045-0.209,0.047-0.432,0-0.648
		c-0.017-0.092,0.061-0.093,0.062-0.167c-0.136-0.194,0.032-0.324-0.062-0.544c0.034-0.083,0.131-0.106,0.125-0.23
		c-0.021-0.043-0.117-0.007-0.125-0.062c-0.006-0.082,0.075-0.077,0.062-0.167c-0.142-0.264,0.037-0.578-0.062-0.837
		c-0.021-0.098,0.084-0.069,0.062-0.167c0.021-0.099-0.084-0.07-0.062-0.167c-0.023-0.093,0.069-0.069,0.062-0.146
		c-0.015-0.063-0.08-0.073-0.062-0.168c-0.021-0.104,0.063-0.103,0.062-0.188c-0.134-0.241,0.03-0.582-0.084-0.837
		c0.116-0.119,0-0.188,0-0.312c0.002-0.136,0.103-0.229,0-0.356c-0.004-0.087,0.08-0.087,0.084-0.167
		c-0.019-0.051-0.095-0.047-0.084-0.125c0.182-0.21,0.057-0.619,0.125-0.857c-0.104-0.403,0.034-0.812-0.041-1.172
		c0.004-0.066,0.047-0.092,0.041-0.167c-0.088-1.175,0.028-2.559-0.062-3.827c-0.004-0.089,0.055-0.112,0.043-0.209
		C120.171,4.784,120.146,4.591,120.145,4.378z M115.312,6.492c0.023,0.023,0.072,0.023,0.125,0.021
		C115.477,6.372,115.312,6.395,115.312,6.492z M113.618,10.715c0.028,0,0.057,0,0.084,0
		C113.721,10.634,113.604,10.634,113.618,10.715z M122.359,12.932c0.007-0.048-0.006-0.078-0.041-0.084
		C122.312,12.896,122.323,12.927,122.359,12.932z M113.493,14.271c0.002-0.013,0.004-0.025,0.021-0.021
		c-0.002-0.024-0.008-0.049-0.043-0.041C113.477,14.233,113.468,14.267,113.493,14.271z M115.124,14.982
		C115.073,15.052,115.193,14.932,115.124,14.982L115.124,14.982z M115.312,15.212c-0.016,0.077,0.031,0.092,0.104,0.083
		c0-0.034,0-0.069,0-0.104C115.357,15.173,115.363,15.22,115.312,15.212z M115.417,15.923c0.097-0.021,0.104-0.251,0.021-0.272
		C115.445,15.776,115.363,15.805,115.417,15.923z M115.249,20.524c0.071-0.052,0.11-0.055,0.188-0.062
		c-0.008-0.056-0.055-0.071-0.104-0.084C115.323,20.444,115.18,20.444,115.249,20.524z M121.48,22.761
		C121.495,22.775,121.475,22.752,121.48,22.761L121.48,22.761z M121.169,22.992c0.086,0.012,0.213-0.132,0.084-0.146
		C121.262,22.931,121.208,22.955,121.169,22.992z M120.792,23.117c0.015,0,0.026,0,0.043,0c0-0.014,0-0.027,0-0.042
		c-0.017,0-0.028,0-0.043,0C120.792,23.089,120.792,23.103,120.792,23.117z M120.835,23.389c0.004-0.03,0.033-0.036,0.041-0.062
		c-0.015-0.001-0.024-0.003-0.021-0.021c-0.015,0-0.027,0-0.041,0C120.814,23.336,120.807,23.382,120.835,23.389z M121.462,23.473
		c0.004-0.044,0.076-0.021,0.082-0.063c-0.049,0.001-0.062-0.035-0.125-0.021C121.413,23.436,121.425,23.467,121.462,23.473z
		 M121.732,23.62c-0.002-0.029,0.011-0.046,0.021-0.063c-0.08,0.019-0.073-0.051-0.125-0.062
		C121.622,23.577,121.684,23.593,121.732,23.62z M120.792,23.787c0.054,0.126-0.019,0.396,0.188,0.418
		c-0.021-0.12-0.062-0.218-0.041-0.377c0.067-0.028,0.164-0.03,0.168-0.125C120.956,23.687,120.915,23.777,120.792,23.787z
		 M121.294,23.807C121.273,23.894,121.355,23.811,121.294,23.807C121.312,23.72,121.23,23.803,121.294,23.807z M121.607,23.828
		C121.659,23.91,121.639,23.758,121.607,23.828L121.607,23.828z M115.479,24.016c0.082,0.017,0.082-0.1,0-0.083
		C115.479,23.96,115.479,23.989,115.479,24.016z M121.271,24.163C121.257,24.29,121.368,24.176,121.271,24.163L121.271,24.163z
		 M122.046,26.17c-0.01,0.066,0.031,0.082,0.043,0.125c0.068-0.008,0.136-0.018,0.146-0.083
		C122.221,26.152,122.068,26.158,122.046,26.17z M121.941,26.212c-0.002,0,0,0.02,0,0.021
		C121.843,26.346,122.042,26.195,121.941,26.212z M122.255,26.505c0.022-0.114-0.086-0.094-0.146-0.126
		C122.137,26.445,122.148,26.521,122.255,26.505z M121.396,26.693c0.06-0.026,0.095-0.074,0.146-0.104
		c-0.078-0.024-0.15-0.058-0.188-0.125C121.305,26.536,121.357,26.645,121.396,26.693z M112.404,26.756
		C112.419,26.77,112.396,26.748,112.404,26.756L112.404,26.756z M122.884,27.425c0.039,0.005,0.046-0.022,0.084-0.021
		c-0.006-0.08-0.09-0.079-0.104-0.146C122.814,27.307,122.866,27.376,122.884,27.425z M123.029,27.488
		C123.044,27.502,123.021,27.479,123.029,27.488L123.029,27.488z M122.82,28.031c-0.01-0.039,0.027-0.125-0.043-0.104
		C122.766,27.979,122.736,28.035,122.82,28.031z M121.271,28.137C121.286,28.15,121.266,28.127,121.271,28.137L121.271,28.137z
		 M113.87,28.43c-0.043-0.049-0.074-0.106-0.168-0.104C113.706,28.412,113.771,28.439,113.87,28.43z M114.163,28.953
		c0.006-0.057-0.009-0.092-0.062-0.084C114.107,28.908,114.105,28.959,114.163,28.953z M113.534,28.994
		c-0.022,0.002-0.06-0.004-0.062,0.02C113.497,29.012,113.532,29.018,113.534,28.994z M114.749,29.1
		C114.698,29.168,114.816,29.047,114.749,29.1L114.749,29.1z M114.352,29.244c0.006-0.047-0.004-0.078-0.041-0.084
		C114.271,29.197,114.312,29.227,114.352,29.244z M113.725,29.391c-0.017,0.006-0.041,0-0.043,0.021
		C113.698,29.406,113.725,29.41,113.725,29.391z M114.395,29.475c0-0.021-0.037-0.024-0.043,0
		C114.374,29.473,114.384,29.506,114.395,29.475z M121.689,30.438c0.08,0.017,0.082-0.045,0.105-0.084
		C121.729,30.348,121.693,30.377,121.689,30.438z M121.982,31.064c0.035-0.07-0.016-0.123-0.104-0.127
		C121.884,31.012,121.896,31.074,121.982,31.064z M122.173,31.607c0-0.027,0-0.056,0-0.084c-0.036,0.014-0.123-0.025-0.127,0.021
		C122.081,31.574,122.1,31.619,122.173,31.607z M120.812,31.859c0.027-0.027,0.027-0.101,0-0.125c-0.021,0-0.043,0-0.063,0
		C120.749,31.797,120.736,31.871,120.812,31.859z M114.854,32.508c0.021,0,0.043,0,0.062,0c0-0.016,0-0.029,0-0.043
		c-0.021,0-0.041,0-0.062,0C114.854,32.479,114.854,32.492,114.854,32.508z M121.544,32.633c0.072,0.016,0.082-0.08,0.021-0.084
		C121.561,32.576,121.536,32.59,121.544,32.633z M122.568,32.799c0.056,0.004,0.029,0.082,0.084,0.086
		c0.023-0.025,0.023-0.074,0.021-0.127C122.622,32.756,122.587,32.77,122.568,32.799z M121.773,33.512
		c0.035-0.037,0.064-0.076,0.062-0.146c-0.039-0.002-0.014-0.07-0.062-0.064C121.721,33.332,121.665,33.496,121.773,33.512z
		 M121.021,33.531c-0.028,0-0.057,0-0.084,0C120.904,33.629,121.046,33.604,121.021,33.531z M121.773,34.85
		c0.031,0.066,0.058,0.14,0.125,0.168c0.004-0.088-0.037-0.117,0-0.188c-0.041,0-0.024-0.058-0.082-0.041
		C121.809,34.811,121.794,34.834,121.773,34.85z M120.771,35.227c0.026-0.063,0.026-0.184-0.062-0.188
		C120.718,35.111,120.675,35.24,120.771,35.227z M122.15,35.121C122.165,35.135,122.145,35.113,122.15,35.121L122.15,35.121z
		 M121.773,35.227c0.017,0,0.027,0,0.043,0c0-0.014,0-0.028,0-0.043c-0.016,0-0.026,0-0.043,0
		C121.773,35.197,121.773,35.213,121.773,35.227z M121.921,35.602c0.031,0.094,0.078,0.267,0.209,0.189
		c-0.012-0.1-0.062-0.129-0.021-0.23c0.033,0,0.068,0,0.104,0c-0.021-0.057-0.032-0.119-0.062-0.168
		C122.146,35.535,122.02,35.553,121.921,35.602z M121.085,35.477c0.015,0,0.026,0,0.041,0c0-0.014,0-0.026,0-0.041
		c-0.015,0-0.026,0-0.041,0C121.085,35.449,121.085,35.463,121.085,35.477z M115.062,35.602c0.028-0.026,0.039-0.145-0.021-0.146
		C115.055,35.498,115.016,35.594,115.062,35.602z M120.979,35.77c0.021,0,0.025,0.019,0.043,0.021c0-0.021,0.017-0.025,0.021-0.043
		c-0.021,0-0.022-0.016-0.041-0.021C121.001,35.748,120.982,35.752,120.979,35.77z M121.816,36.857
		c0.101,0.018,0.177-0.127,0.062-0.146C121.846,36.746,121.814,36.787,121.816,36.857z M114.915,37.463
		C114.938,37.547,114.938,37.381,114.915,37.463L114.915,37.463z M121.314,37.631c0.006,0,0.015,0,0.021,0
		c0.017-0.018,0.033-0.057,0-0.062C121.325,37.584,121.312,37.602,121.314,37.631c-0.071,0.016-0.026-0.084-0.104-0.062
		c0.004,0.06-0.019,0.144,0.043,0.146C121.262,37.674,121.333,37.697,121.314,37.631z M122.693,38.195
		c0.115,0.059,0.193-0.082,0.189-0.209c-0.031-0.012-0.053-0.031-0.084-0.041C122.755,38.02,122.732,38.115,122.693,38.195z
		 M114.915,38.678C114.93,38.689,114.907,38.668,114.915,38.678L114.915,38.678z M121.419,39.68
		c0.031,0.021,0.045,0.053,0.043,0.105c0.052,0.002,0.101,0.002,0.125-0.021c-0.035-0.068-0.006-0.203-0.104-0.209
		C121.475,39.609,121.419,39.617,121.419,39.68z M121.503,39.973c0.08,0.043,0.082-0.094,0.041-0.104
		C121.536,39.908,121.484,39.906,121.503,39.973z M121.48,40.475c0.066-0.004,0.148-0.102,0.105-0.146
		C121.566,40.393,121.484,40.395,121.48,40.475z M121.982,41.918C121.966,42.041,121.995,41.834,121.982,41.918L121.982,41.918z
		 M122.443,42.232c0.103-0.004,0.185-0.025,0.188-0.127C122.544,42.049,122.482,42.172,122.443,42.232z M122.046,42.713
		c0.14-0.021,0.06,0.062,0.127,0.084c-0.006-0.074,0.099-0.043,0.082-0.127c-0.065-0.01-0.069,0.025-0.146-0.041
		C122.104,42.672,122.055,42.67,122.046,42.713z M122.089,43.047c0.033-0.057,0.062-0.117,0.125-0.146
		c0.039,0.054,0.011,0.173,0.104,0.168c0.041-0.014,0.056-0.057,0.062-0.104C122.296,42.75,122.005,42.887,122.089,43.047z
		 M122.089,43.383c0.065,0.023,0.048,0.002,0.125,0c0.007-0.07-0.024-0.102-0.084-0.105
		C122.122,43.318,122.07,43.316,122.089,43.383z M121.837,44.135C121.852,44.148,121.829,44.127,121.837,44.135L121.837,44.135z
		 M121.146,48.316c0.015,0,0.027,0,0.041,0c0-0.012,0-0.027,0-0.041c-0.014,0-0.026,0-0.041,0
		C121.146,48.289,121.146,48.305,121.146,48.316z M120.96,48.986c-0.043-0.062,0.037-0.121-0.063-0.125
		C120.896,48.924,120.884,48.998,120.96,48.986z M120.562,49.426c0.252-0.043,0.037-0.322,0.188-0.439
		c-0.029-0.004-0.035-0.032-0.061-0.041C120.604,49.096,120.568,49.279,120.562,49.426z M120.229,50.221
		c0.108,0.027,0.112-0.055,0.104-0.146c-0.02,0-0.041,0-0.062,0C120.271,50.141,120.214,50.145,120.229,50.221z M119.663,50.764
		c0.144,0.082,0.299-0.059,0.209-0.209C119.73,50.555,119.646,50.609,119.663,50.764z"/>
	<path fill="#462901" d="M141.979,3.333c0.088-0.078-0.082-0.155-0.021-0.21c0.145,0.135,0.258-0.065,0.396,0.063
		c0.065,0.01,0.057-0.057,0.104-0.063c0.5,0.093,0.914-0.034,1.399,0.043c0.293-0.068,0.586,0.03,0.857-0.043
		c0.357,0.103,0.76-0.06,1.15,0.043c0.264-0.036,0.543-0.058,0.773,0.021c0.122-0.136,0.26,0.061,0.377-0.063
		c0.102,0.083,0.262-0.022,0.354,0.063c0.278-0.096,0.649,0.037,0.899-0.042c0.73,0.165,1.854,0.037,2.76,0.083
		c0.007,0.079,0.086,0.082,0.146,0.105c-0.035,0.258,0.035,0.487,0,0.69c-0.029,0.167-0.207,0.41-0.021,0.647
		c-0.049,0.18-0.104,0.391-0.104,0.606c0.002,1.014,0.061,2.194,0.041,3.242c-0.016,0.906-0.014,1.873-0.021,2.781
		c0,0.169,0.048,0.344,0.043,0.502c-0.002,0.107-0.098,0.228,0.021,0.313c-0.1,0.674,0.045,1.479-0.043,2.112
		c-0.041,0.3,0.129,0.635,0,0.941c-1.406,0.009-2.57-0.081-3.826,0.021c-0.137-0.155-0.145-0.429-0.146-0.731
		c-0.002-0.204,0.051-0.408,0.062-0.607c0.006-0.119-0.043-0.253-0.043-0.376c0.002-0.426,0.057-0.896,0.043-1.338
		c-0.002-0.057-0.043-0.114-0.043-0.168c0.004-0.12,0.043-0.125,0.021-0.271c-0.027-0.195,0.01-0.39,0.021-0.564
		c0.01-0.172-0.048-0.349-0.044-0.481c0.005-0.07,0.044-0.129,0.044-0.188c-0.003-0.138-0.019-0.307-0.021-0.48
		c-0.006-0.062,0.039-0.072,0.062-0.105c-0.093-0.149-0.058-0.266-0.041-0.438c0.014-0.152-0.05-0.338-0.044-0.48
		c0.072-1.496-0.051-3.215,0.064-4.789c-0.025-0.067-0.066-0.117-0.104-0.168c-0.939,0-1.904,0.007-2.845-0.021
		c-0.39-0.012-0.94-0.072-1.047,0.209c0.039,0.141,0.104,0.348,0,0.502c-0.015,0.076,0.047,0.08,0.043,0.146
		c-0.101,0.636-0.047,1.291-0.043,1.944c0.006,0.822,0.021,1.66,0.021,2.51c0,0.053-0.016,0.09-0.021,0.146
		c-0.065,0.766,0.037,1.569,0.021,2.363c-0.012,0.611-0.006,1.229,0,1.861c0.002,0.247-0.008,0.522-0.021,0.773
		c-0.076,1.479-0.013,3.022-0.021,4.56c-0.008,1.678-0.031,3.402,0.062,4.936c-0.066,0.478-0.113,1.169,0.041,1.609
		c0.025-0.003,0.037,0.005,0.043,0.021c1.859-0.035,3.416,0.022,5.164-0.021c0.242,0.162,0.264,0.58-0.02,0.712
		c-1.812-0.044-3.494-0.006-5.188-0.042c-0.187,0.268-0.084,0.587-0.084,0.92c0.002,0.651-0.013,1.351-0.021,2.028
		c-0.016,1.355,0.035,2.553,0.021,3.869c0,0.063,0.045,0.082,0.063,0.127c-0.062,0.313-0.09,0.93-0.104,1.316
		c-0.022,0.631-0.017,1.282,0.021,1.944c0.039,0.717-0.059,1.451-0.021,2.153c0.055,1.017,0.03,2.281,0.021,3.408
		c-0.008,0.818,0.006,1.65-0.021,2.47c-0.004,0.122-0.002,0.254,0,0.375c0.014,0.725,0.006,1.504,0.021,2.344
		c0.019,1.008-0.049,2.244,0.041,3.304c0.051,0.055,0.139,0.071,0.209,0.104c0.377-0.062,0.803-0.023,1.131-0.021
		c0.097,0.043,0.144,0.112,0.082,0.209c0.058,0.049,0.137,0.073,0.252,0.062c0.039-0.181-0.158-0.121-0.146-0.271
		c0.094-0.052,0.179,0.01,0.293,0c-0.008,0.104,0.006,0.188,0.041,0.252c0.146-0.025,0.084-0.117,0.062-0.23
		c0.127-0.047,0.392-0.061,0.461,0.084c0.076,0.006,0.082-0.057,0.104-0.105c0.192-0.012,0.399-0.061,0.502,0.043
		c0.195-0.039,0.438-0.09,0.629-0.062c0.048,0.006,0.104,0.049,0.146,0.041c0.258-0.06,0.076-0.42,0.104-0.711
		c-0.01-0.046,0.029-0.039,0.062-0.041c-0.059-0.179-0.092-0.404-0.084-0.589c0.002-0.036,0.06-0.069,0.062-0.104
		c0.02-0.129-0.066-0.346-0.062-0.523c0.002-0.065,0.046-0.129,0.043-0.188c-0.002-0.051-0.043-0.094-0.043-0.146
		c0.005-0.108,0.08-0.225,0-0.354c0.048-0.219,0.011-0.467,0.021-0.668c0.01-0.088,0.105,0.063,0.209,0.021
		c0.035-0.051-0.064-0.105-0.062-0.188c-0.063-0.017-0.024,0.072-0.104,0.041c-0.133-0.146,0.009-0.67-0.021-1.022
		c-0.01-0.119-0.088-0.222,0.021-0.314c-0.1-0.324-0.026-0.676-0.021-1.025c0.005-0.287-0.053-0.58-0.043-0.877
		c0.029-0.938,0.015-1.828,0.021-2.803c0.002-0.281-0.037-0.58-0.041-0.838c-0.004-0.197,0.037-0.473,0-0.752
		c0.055-0.113,0.168-0.166,0.25-0.252c0.143,0.105,0.332,0.047,0.523,0.021c0.043,0.026,0.049,0.09,0.084,0.125
		c0.055-0.017,0.125-0.076,0.188-0.021c0.027-0.027,0.027-0.078-0.021-0.084c0.063-0.043,0.038,0.021,0.104,0.021
		c0.055,0,0.121-0.063,0.125-0.063c0.039,0.004,0.09,0.075,0.125,0.084c0.066,0.016,0.082-0.039,0.146-0.041
		c0.031-0.002,0.09,0.039,0.127,0.041c0.18,0.012,0.328-0.074,0.502,0c0.08,0.021,0.074-0.052,0.125-0.062
		c0.07-0.017,0.025,0.086,0.104,0.062c0.523-0.07,0.902,0.006,1.424-0.062c0.447,0.153,0.183,0.93,0.271,1.358
		c-0.031,0.041-0.049,0.092-0.064,0.146c0.095,0.422,0.002,1.07,0.021,1.527c-0.074,0.512-0.041,1.062-0.021,1.672
		c0.006,0.164-0.024,0.334-0.02,0.502c0.045,1.271-0.049,2.635,0.041,3.807c-0.082,1.091,0.068,2.054-0.062,3.158
		c-1.092-0.031-2.313-0.055-3.305,0c-0.018-0.037-0.072-0.039-0.104-0.062c-1.939,0.08-3.857,0.021-5.689,0.041
		c-0.809,0.01-1.643-0.049-2.404-0.021c-0.137,0.006-0.266,0.008-0.396,0c0.092-0.119,0.035-0.213,0-0.354
		c-0.019-0.08,0.053-0.072,0.082-0.104c-0.019-0.072-0.049-0.134-0.082-0.188c-0.021-0.104,0.086-0.08,0.082-0.168
		c0.017-0.104-0.076-0.104-0.082-0.188c-0.006-0.076,0.082-0.057,0.082-0.127c0.012-0.08-0.101-0.147-0.062-0.188
		c-0.011-0.086,0.053,0.016,0.084-0.041c-0.017-0.117-0.045-0.221-0.104-0.293c-0.004-0.08,0.069-0.082,0.082-0.146
		c0.017-0.104-0.076-0.104-0.082-0.188c0.062-0.091,0.074-0.232,0.229-0.229c0.021-0.088-0.043-0.143,0-0.189
		c0.125,0,0.225,0.06,0.336-0.021c-0.021-0.062-0.043-0.123-0.064-0.188c-0.068,0.044-0.09,0.132-0.166,0.169
		c-0.117-0.003-0.119-0.119-0.23-0.128c0.006-0.026,0.054-0.016,0.084-0.02c-0.02-0.162-0.094-0.27-0.188-0.355
		c-0.021-0.11,0.07-0.11,0.082-0.188c-0.006-0.084-0.086-0.096-0.082-0.189c0.086-0.065,0.117-0.235,0-0.293
		c-0.012-0.094,0.072-0.094,0.082-0.168c0.004-0.102-0.086-0.106-0.082-0.207c0.012-0.094,0.131-0.077,0.207-0.104
		c-0.006-0.082,0.055-0.166,0-0.229c-0.1,0.022,0.021,0.143-0.041,0.188c-0.111,0.006-0.107-0.103-0.166-0.146
		c-0.012-0.094,0.072-0.094,0.082-0.168c-0.002-0.074-0.078-0.076-0.082-0.146c0.049-0.123,0.094-0.246,0-0.355
		c0.082-0.11,0.062-0.235,0-0.354c-0.014-0.088,0.082-0.071,0.082-0.146c-0.006-0.07-0.035-0.117-0.082-0.146
		c0.07-0.146,0.072-0.275-0.021-0.396c0.029-0.057,0.097-0.071,0.104-0.146c0.002-0.078-0.078-0.076-0.104-0.127
		c0.166-0.168-0.039-0.356,0.084-0.521c0.017-0.115-0.094-0.104-0.084-0.209c0.129-0.062,0.078-0.242,0-0.314
		c-0.006-0.082,0.09-0.064,0.084-0.146c-0.135-0.188,0.072-0.344-0.062-0.522c0.062-0.138,0.142-0.248,0.062-0.418
		c0.119-0.039,0.115-0.332,0.082-0.439c0.086-0.196,0.312-0.139,0.461-0.25c0.009-0.09-0.092-0.02-0.125-0.021
		c0-0.062,0-0.125,0-0.188c-0.102-0.004-0.073,0.121-0.146,0.146c-0.053,0.045-0.094-0.048-0.168-0.043
		c-0.076,0.077,0.092,0.088,0.062,0.188c-0.174,0.021-0.123-0.223-0.25-0.313c0.188-0.128-0.069-0.33,0.084-0.46
		c0.025-0.116-0.055-0.129-0.084-0.188c0.006-0.092,0.084-0.108,0.104-0.188c-0.002-0.09-0.074-0.106-0.104-0.168
		c0.082-0.086,0.115-0.233,0-0.313c0.006-0.098,0.15-0.168,0.062-0.291c0.018-0.03,0.066-0.03,0.104-0.043
		c-0.053-0.121-0.086-0.262-0.166-0.354c0.123-0.129,0.197-0.521,0-0.627c0.172-0.084-0.01-0.324,0.166-0.377
		c-0.088-0.168-0.094-0.552,0.021-0.732c0.057,0.025,0,0.109,0,0.146c0.061,0,0.078-0.048,0.105-0.082
		c-0.101-0.146-0.135-0.355-0.209-0.523c0.047-0.072,0.067-0.268,0-0.334c0.078-0.102,0.008-0.254,0.02-0.398
		c0.016-0.166,0.174-0.223,0.146-0.377c0.094-0.061,0.217-0.09,0.293-0.168c-0.125-0.027-0.191-0.113-0.25-0.207
		c0.028,0.082-0.104,0.168-0.189,0.125c0.141-0.09,0.012-0.246,0-0.397c0.061-0.044,0.094,0.077,0.209,0.043
		c-0.016-0.188-0.105-0.3-0.188-0.421c-0.045-0.207,0.033-0.428-0.041-0.584c0.002-0.065,0.047-0.092,0.041-0.168
		c0.018-0.088-0.041-0.098-0.041-0.168c0.092-0.211-0.004-0.446,0-0.668c0.006-0.479,0.043-1.016,0.041-1.526
		c0-0.16-0.062-0.317-0.062-0.479c-0.002-0.328,0.047-0.687,0.021-1.004c-0.043-0.507,0.062-1.076,0.02-1.568
		c-0.008-0.109-0.008-0.158,0-0.293c0.004-0.064-0.045-0.133-0.041-0.209c0.01-0.195,0.047-0.553,0.041-0.816
		c0-0.051-0.043-0.115-0.041-0.166c0.006-0.154,0.037-0.322,0.041-0.502c0.002-0.059-0.041-0.115-0.041-0.167
		c0.002-0.222,0.082-0.457,0-0.67c0.08-0.125,0.012-0.288,0.021-0.46c-0.084-0.029-0.168-0.057-0.209-0.126
		c-0.068,0.09-0.179,0.018-0.273,0.021c-0.041,0.002-0.094,0.061-0.125,0.062c-0.109,0.006-0.246-0.042-0.377-0.041
		c-0.143,0.001-0.303,0.059-0.396,0.041c-0.279-0.051-0.326-0.321-0.252-0.69c0.471-0.087,1.234,0.102,1.633-0.083
		c0.074-0.432-0.059-0.834,0.021-1.234c0.062,0.014,0.108,0.079,0.146,0c-0.016-0.076-0.065,0.002-0.146-0.021
		c-0.056-0.908,0.017-1.841-0.041-2.803c-0.01-0.078,0.045-0.095,0.084-0.125c-0.065-0.335-0.11-0.723-0.021-1.088
		c0.016-0.071-0.086-0.026-0.062-0.104c0.09-0.168-0.066-0.391,0.062-0.543c0.094-0.029,0.104,0.081,0.168,0.021
		c0-0.028,0-0.056,0-0.084c-0.047-0.064-0.131,0.007-0.168,0.021c-0.115-0.08-0.045-0.297,0.062-0.335
		c-0.06-0.025-0.121-0.047-0.146-0.104c0.092-0.158-0.021-0.396,0.062-0.564c0.117-0.013,0.168,0.143,0.252,0.042
		c-0.099-0.029-0.067-0.112-0.146-0.188c0.037-0.047,0.19,0.024,0.146-0.104c-0.037-0.098-0.076,0.048-0.168,0.021
		c-0.039,0.052-0.01,0.17-0.084,0.188c-0.094-0.094-0.004-0.329,0.084-0.376c-0.104-0.099-0.094-0.184-0.146-0.336
		c0.131-0.24-0.078-0.628,0.104-0.856c-0.015-0.071-0.073-0.093-0.084-0.168c-0.006-0.082,0.09-0.063,0.084-0.146
		c0.015-0.09-0.104-0.048-0.084-0.146c0.022-0.053,0.104-0.048,0.125-0.104c-0.004-0.1-0.076-0.132-0.104-0.209
		c0.004-0.079,0.088-0.079,0.082-0.167c0.004-0.08-0.069-0.081-0.082-0.146c-0.02-0.109,0.103-0.079,0.082-0.188
		c0.004-0.08-0.069-0.081-0.082-0.146c0.078-0.103,0.119-0.243,0-0.335c-0.02-0.102,0.088-0.079,0.082-0.167
		c0.006-0.088-0.078-0.088-0.082-0.167c-0.01-0.084,0.058-0.097,0.082-0.146c-0.166-0.161,0.062-0.345-0.082-0.502
		c-0.02-0.102,0.088-0.079,0.082-0.167c0.002-0.092-0.067-0.112-0.082-0.188c-0.01-0.1,0.095-0.086,0.082-0.188
		c0.01-0.079-0.063-0.074-0.082-0.126c0.058-0.138,0.08-0.244,0-0.376c-0.018-0.087,0.101-0.04,0.082-0.126
		c0.029-0.118-0.082-0.098-0.082-0.188c-0.012-0.088,0.07-0.083,0.082-0.146c0.004-0.101-0.104-0.09-0.082-0.208
		c0.033-0.092,0.113-0.139,0.188-0.188c-0.053-0.037-0.164-0.017-0.188-0.084c0.107-0.177-0.01-0.287,0.021-0.46
		c0.09-0.053,0.104,0.053,0.188,0.062c0.109-0.184-0.102-0.238-0.209-0.251c0.011-0.164,0.117-0.267,0-0.397
		c-0.006-0.089,0.062-0.106,0.104-0.146c-0.012-0.079-0.097-0.086-0.104-0.168c0.07-0.088,0.088-0.255-0.021-0.313
		c0.09-0.124,0.09-0.23,0.021-0.377c0.011-0.101,0.107-0.114,0.188-0.146c-0.058-0.063-0.174-0.064-0.209-0.146
		c-0.021-0.11,0.103-0.079,0.084-0.188c0.002-0.081-0.071-0.082-0.084-0.147c0.185-0.149-0.062-0.356,0.084-0.521
		c-0.012-0.065-0.062-0.092-0.084-0.146c0.058-0.089,0.147-0.251,0-0.314c0.002-0.088,0.082-0.101,0.084-0.188
		c0-0.075-0.062-0.094-0.084-0.146c0.092-0.131,0.092-0.245,0-0.376c0.031-0.045,0.063-0.089,0.084-0.146
		c0.004-0.088-0.08-0.088-0.084-0.167c0.099-0.097,0.099-0.238,0-0.335c0.076-0.08,0.129-0.248,0-0.313
		c-0.004-0.094,0.076-0.104,0.084-0.188c-0.01-0.073-0.053-0.114-0.084-0.167c-0.004-0.088,0.103-0.064,0.084-0.167
		c0.002-0.081-0.071-0.082-0.084-0.146c0.06-0.109,0.133-0.246,0-0.335c0.078-0.11,0.117-0.258,0-0.354
		c-0.021-0.097,0.08-0.073,0.084-0.146c0.021-0.104-0.062-0.104-0.084-0.167c0.099-0.126,0.09-0.249,0-0.377
		c0.063-0.046,0.194-0.307,0.021-0.334c0.019-0.037,0.076-0.035,0.082-0.084c-0.014-0.097-0.069-0.151-0.104-0.23
		c0.121-0.274,0.15-0.604,0.062-0.878c0.104-0.23,0.379-0.135,0.563-0.083c0.183-0.038,0.375-0.065,0.522,0.021
		c0.177-0.131,0.418,0.035,0.627-0.063c0.054,0.01,0.097,0.03,0.125,0.063c0.103-0.122,0.254,0.036,0.377-0.063
		c0.166,0.104,0.236-0.039,0.418,0.063C141.919,3.224,141.891,3.337,141.979,3.333z M140.848,4.755
		C140.861,4.769,140.839,4.747,140.848,4.755L140.848,4.755z M139.445,6.533c-0.018-0.004-0.02,0.009-0.021,0.021
		c-0.062,0.005,0.021,0.088,0,0C139.441,6.558,139.445,6.545,139.445,6.533C139.479,6.52,139.443,6.508,139.445,6.533z
		 M140.305,7.223c0.014,0,0.026,0,0.041,0c0-0.014,0-0.028,0-0.042c-0.015,0-0.027,0-0.041,0
		C140.305,7.195,140.305,7.209,140.305,7.223z M140.221,7.39C140.232,7.404,140.212,7.381,140.221,7.39L140.221,7.39z
		 M140.346,8.813c0.09-0.024,0.084-0.142,0.127-0.21c-0.029-0.005-0.035-0.034-0.062-0.042
		C140.341,8.628,140.312,8.69,140.346,8.813z M139.384,9.377c0.027,0,0.058,0,0.084,0c-0.01-0.039,0.027-0.126-0.043-0.104
		C139.417,9.313,139.366,9.31,139.384,9.377z M140.409,9.524c0.036-0.003,0.067-0.014,0.082-0.043
		c-0.027-0.006-0.039-0.028-0.082-0.021C140.409,9.481,140.409,9.502,140.409,9.524z M140.409,9.65c0.062,0.029,0.062-0.095,0-0.063
		C140.409,9.607,140.409,9.628,140.409,9.65z M140.766,9.963c-0.027-0.001-0.029-0.027-0.064-0.021
		C140.669,9.993,140.771,10.003,140.766,9.963z M140.911,10.862c0.03-0.041,0.104-0.106,0-0.125
		C140.915,10.773,140.854,10.84,140.911,10.862z M139.823,10.946c0.028-0.033,0.043-0.166-0.044-0.146
		C139.809,10.836,139.784,10.921,139.823,10.946z M140.868,10.988c0.014,0,0.026,0,0.043,0c0-0.015,0-0.028,0-0.042
		c-0.017,0-0.029,0-0.043,0C140.868,10.959,140.868,10.973,140.868,10.988z M139.529,11.05c0.021,0,0.041,0,0.062,0
		c0-0.014,0-0.028,0-0.042c-0.021,0-0.041,0-0.062,0C139.529,11.022,139.529,11.037,139.529,11.05z M139.3,11.155
		C139.312,11.168,139.292,11.146,139.3,11.155L139.3,11.155z M139.445,12.431c0.007-0.048-0.004-0.079-0.041-0.085
		C139.366,12.384,139.409,12.412,139.445,12.431z M139.863,13.372c0.033,0.024,0.089,0.073,0.105,0
		C139.938,13.347,139.882,13.298,139.863,13.372z M147.311,13.665c-0.017,0.005-0.041,0.001-0.041,0.021
		C147.284,13.681,147.311,13.685,147.311,13.665z M139.509,14.167C139.521,14.18,139.501,14.157,139.509,14.167L139.509,14.167z
		 M139.654,14.689c0.005-0.093-0.018-0.163-0.125-0.146C139.552,14.612,139.596,14.659,139.654,14.689z M140.618,14.752
		c0.019-0.038,0.084-0.027,0.062-0.105c-0.021,0-0.043,0-0.062,0C140.604,14.689,140.546,14.737,140.618,14.752z M141.016,15.233
		c-0.007,0.042,0.004,0.065,0.043,0.062C141.059,15.259,141.042,15.241,141.016,15.233c0-0.056,0.02-0.131-0.062-0.105
		C140.938,15.199,140.995,15.197,141.016,15.233z M139.529,16.32c0.06-0.017,0.105-0.047,0.125-0.104
		c0.005-0.046-0.018-0.066-0.062-0.063C139.575,16.211,139.523,16.239,139.529,16.32z M141.309,16.404
		c-0.017-0.051,0.1-0.12,0-0.126C141.312,16.315,141.249,16.383,141.309,16.404z M139.654,16.822
		c0.091,0.035,0.104,0.146,0.189,0.188c0-0.055,0-0.111,0-0.167c-0.096,0.025-0.066-0.073-0.127-0.084
		C139.716,16.799,139.648,16.774,139.654,16.822z M139.802,17.22c0.058-0.008,0.07-0.056,0.085-0.104
		c-0.027-0.001-0.029-0.026-0.062-0.021C139.809,17.137,139.757,17.176,139.802,17.22z M140.116,17.199
		C140.13,17.212,140.105,17.19,140.116,17.199L140.116,17.199z M139.57,17.366c0.076,0.006,0.146,0.006,0.128-0.084
		c-0.044,0-0.085,0-0.128,0C139.57,17.31,139.57,17.338,139.57,17.366z M139.846,17.366c-0.011-0.04-0.009-0.09-0.064-0.084
		C139.777,17.334,139.812,17.347,139.846,17.366z M139.738,17.512C139.753,17.526,139.729,17.503,139.738,17.512L139.738,17.512z
		 M139.738,17.659c-0.075,0.082-0.168,0.155-0.084,0.293C139.798,17.969,139.855,17.711,139.738,17.659z M140.659,17.847
		c0.014,0,0.028,0,0.041,0c0.014-0.001,0.024-0.003,0.021-0.021c-0.029-0.005-0.035-0.034-0.062-0.041
		C140.659,17.805,140.659,17.826,140.659,17.847z M139.634,18.203C139.646,18.216,139.626,18.194,139.634,18.203L139.634,18.203z
		 M139.425,19.917c0.084-0.02,0.037-0.237-0.021-0.251C139.316,19.776,139.491,19.823,139.425,19.917z M139.361,20.524
		c0.056,0.008,0.062,0.062,0.125,0.062c0.029-0.021,0.064-0.034,0.084-0.062c-0.137,0.015-0.057-0.106-0.062-0.188
		c-0.061,0.006-0.063-0.047-0.125-0.042C139.346,20.338,139.37,20.447,139.361,20.524z M139.887,21.465
		c-0.017,0.004-0.041,0-0.041,0.021C139.859,21.482,139.887,21.485,139.887,21.465z M140.534,22.678
		c0.063,0.001,0.051-0.075,0.125-0.062c-0.011-0.074,0.032-0.202-0.062-0.188C140.544,22.478,140.521,22.561,140.534,22.678z
		 M139.341,23.18c0.072,0.038,0.162,0.088,0.229,0.021c0.013-0.081-0.053-0.086-0.062-0.146c-0.055,0-0.11,0-0.168,0
		C139.341,23.096,139.341,23.138,139.341,23.18z M142.542,23.285c0.062-0.071-0.022-0.133-0.043-0.188c-0.033,0-0.067,0-0.104,0
		C142.411,23.19,142.407,23.307,142.542,23.285z M140.325,23.327C140.35,23.409,140.35,23.244,140.325,23.327L140.325,23.327z
		 M141.12,24.351c0.063-0.016,0.062,0.036,0.125,0.021c0.022-0.065,0.002-0.047,0-0.125
		C141.189,24.267,141.126,24.281,141.12,24.351z M141.413,24.644c0-0.021-0.037-0.026-0.043,0
		C141.395,24.642,141.402,24.674,141.413,24.644z M140.598,33.824C140.648,33.906,140.628,33.756,140.598,33.824L140.598,33.824z
		 M139.361,34.871c0.029,0,0.058,0,0.084,0C139.559,34.693,139.257,34.699,139.361,34.871z M139.762,34.871
		c-0.037,0-0.066-0.006-0.085-0.021C139.661,34.92,139.757,34.932,139.762,34.871z M139.613,35.623
		c0.015-0.076-0.043-0.082-0.104-0.084C139.495,35.617,139.542,35.633,139.613,35.623z M139.762,35.854
		c0.028,0.078-0.035,0.142,0.062,0.166c-0.009-0.098,0.116-0.174,0.04-0.271C139.866,35.82,139.805,35.826,139.762,35.854z
		 M139.991,35.957C140.016,36.041,140.016,35.875,139.991,35.957L139.991,35.957z M139.593,36.062
		C139.646,36.145,139.624,35.994,139.593,36.062L139.593,36.062z M140.305,38.613c0.041-0.039-0.021-0.084-0.021-0.146
		c-0.021,0-0.043,0-0.063,0C140.206,38.559,140.257,38.584,140.305,38.613z M139.486,38.678c0-0.021,0-0.043,0-0.063
		c-0.03,0.004-0.075-0.009-0.082,0.021C139.445,38.635,139.432,38.691,139.486,38.678z M139.3,38.76
		c0.002,0.096,0.121,0.074,0.188,0.105c-0.002-0.061,0.02-0.146-0.041-0.146C139.443,38.777,139.357,38.756,139.3,38.76z
		 M139.57,39.012c-0.006-0.018-0.055-0.025-0.062,0C139.495,39.061,139.591,39.057,139.57,39.012z M139.593,39.576
		c0.033,0.057,0.07-0.031,0.021-0.043C139.613,39.555,139.598,39.559,139.593,39.576z M139.361,39.639
		c-0.004,0.07,0.078,0.107,0.125,0.062c0.007-0.039-0.022-0.047-0.02-0.084C139.419,39.611,139.389,39.621,139.361,39.639z
		 M140.052,40.287c0.062,0.051,0.072-0.084,0.189-0.043c0.028-0.062,0.012-0.148-0.062-0.166
		C140.18,40.189,140.046,40.168,140.052,40.287z M139.425,40.182c0.058,0.006,0.07-0.029,0.062-0.082
		C139.434,40.092,139.421,40.127,139.425,40.182z M139.779,40.162C139.794,40.176,139.771,40.152,139.779,40.162L139.779,40.162z
		 M139.236,41.186c0.068,0.043,0.158-0.041,0.23-0.062c-0.018-0.088,0.027-0.174,0-0.209c-0.021,0-0.043,0-0.062,0
		C139.402,41.061,139.312,41.115,139.236,41.186z M140.325,42.127c-0.002-0.053-0.005-0.107-0.062-0.104
		C140.257,42.082,140.259,42.137,140.325,42.127z M140.052,42.232c0.017,0,0.029,0,0.044,0c0-0.015,0-0.029,0-0.043
		c-0.015,0-0.027,0-0.044,0C140.052,42.203,140.052,42.219,140.052,42.232z M147.354,44.846c-0.019,0.006-0.043,0.002-0.043,0.021
		C147.327,44.863,147.352,44.867,147.354,44.846z M147.497,45.305c-0.041-0.109-0.047-0.256-0.188-0.271
		C147.227,45.158,147.294,45.35,147.497,45.305z M148.042,46.205c0.153-0.029,0.174,0.078,0.25,0.125
		c0.017-0.096,0.019-0.205,0.043-0.293c-0.065-0.023-0.063-0.115-0.125-0.145C148.167,46.01,148.141,46.143,148.042,46.205z
		 M149.214,46.373c0.021-0.043,0.041-0.084,0.062-0.125C149.212,46.234,149.157,46.336,149.214,46.373z M139.486,46.373
		C139.503,46.387,139.479,46.363,139.486,46.373L139.486,46.373z M147.958,46.498c0.101-0.002,0.047,0.148,0.146,0.146
		c0.004-0.123-0.008-0.23-0.104-0.25C148.003,46.445,147.968,46.457,147.958,46.498z M147.395,46.561c0-0.021,0-0.041,0-0.062
		c-0.021,0-0.041,0-0.062,0C147.327,46.543,147.35,46.564,147.395,46.561z M140.618,46.875c-0.009-0.049-0.021-0.09-0.062-0.105
		C140.512,46.812,140.557,46.875,140.618,46.875z M148.521,46.854c0.015,0.062,0.033,0.121,0.105,0.125
		c0.045-0.022,0.047-0.092,0.062-0.146C148.643,46.787,148.57,46.838,148.521,46.854z M140.618,47.041
		c0.03-0.031,0.036-0.143-0.043-0.125C140.529,46.961,140.566,47.029,140.618,47.041z M139.887,47.293
		c0.012-0.031,0.03-0.053,0.04-0.084c-0.024-0.002-0.026-0.027-0.062-0.021C139.854,47.242,139.837,47.262,139.887,47.293z
		 M139.971,47.334c0.014,0,0.026,0,0.041,0c0-0.014,0-0.027,0-0.041c-0.015,0-0.027,0-0.041,0
		C139.971,47.307,139.971,47.32,139.971,47.334z M148.335,47.732c-0.065-0.019-0.062-0.109-0.125-0.127
		C148.137,47.678,148.284,47.785,148.335,47.732z M148.48,47.711C148.505,47.793,148.505,47.629,148.48,47.711L148.48,47.711z
		 M148.48,48.066c-0.024-0.137,0.086-0.137,0.104-0.23c-0.039-0.008-0.053-0.045-0.104-0.041
		C148.458,47.865,148.354,48.033,148.48,48.066z M139.404,48.338c0.097,0.031,0.035,0.217,0.146,0.23
		c0.002-0.025,0.033-0.023,0.062-0.021c0.033-0.105,0.062-0.215,0.104-0.312c-0.104-0.021-0.1-0.149-0.188-0.188
		C139.516,48.17,139.396,48.189,139.404,48.338z M147.979,48.213c0.039,0.041,0.099,0.01,0.146,0
		C148.143,48.07,147.988,48.146,147.979,48.213z M147.958,48.527c0.067,0.004,0.051-0.074,0.084-0.105
		c-0.049-0.006-0.039-0.072-0.104-0.062C147.923,48.438,147.975,48.449,147.958,48.527z M147.415,48.777
		c0.045-0.051,0.017-0.154-0.062-0.146C147.298,48.691,147.35,48.771,147.415,48.777z M148.355,48.945
		c0.078,0.024,0.093,0.117,0.209,0.104c-0.01-0.08-0.018-0.164-0.043-0.23C148.423,48.816,148.384,48.875,148.355,48.945z
		 M147.395,48.902c-0.017,0.006-0.041,0.002-0.041,0.021C147.368,48.92,147.395,48.924,147.395,48.902z M147.247,49.008
		c0.032-0.059-0.09-0.059-0.084-0.021C147.191,48.994,147.204,49.016,147.247,49.008z M147.645,49.111
		C147.657,49.127,147.637,49.104,147.645,49.111L147.645,49.111z M139.654,49.279c0.072,0.016,0.117-0.104,0.062-0.146
		C139.698,49.184,139.634,49.188,139.654,49.279z M147.186,49.154C147.198,49.168,147.175,49.145,147.186,49.154L147.186,49.154z
		 M139.529,49.697c-0.084-0.041-0.209,0.037-0.188,0.168c0.14,0.084,0.255-0.102,0.357,0c0.094-0.223,0.012-0.459-0.021-0.564
		C139.562,49.396,139.63,49.57,139.529,49.697z M139.384,50.492c0.078,0.059-0.008,0.156,0.041,0.23
		c0.127,0.008,0.117-0.121,0.127-0.23C139.521,50.461,139.413,50.461,139.384,50.492z"/>
	<path fill="#462901" d="M139.259,36C139.354,36.014,139.241,36.127,139.259,36L139.259,36z"/>
	<path fill="#462901" d="M139.259,36.73c0.027,0.008,0.019,0.055,0.021,0.084c-0.023-0.002-0.037,0.006-0.041,0.021
		C139.175,36.811,139.251,36.756,139.259,36.73z"/>
	<path fill="#462901" d="M139.195,42.336c-0.041,0.039-0.008,0.078,0,0.127c-0.018-0.012-0.034-0.023-0.062-0.021
		C139.128,42.381,139.13,42.326,139.195,42.336z"/>
	<path fill="#462901" d="M139.152,48.693c0.043,0.016,0.086,0.062,0.043,0.104C139.122,48.812,139.12,48.725,139.152,48.693z"/>
</g>
</svg>
